<svg width="100" height="100" viewBox="0 0 100 100" fill="none" xmlns="http://www.w3.org/2000/svg">
<path d="M53.2 63.8C51.2308 65.8 48.9744 67.86 46.4103 70C35.4769 60.9 30 53.04 30 46.4C30 36.44 37.7949 30 46.4103 30C54.6154 30 62.0821 35.84 62.759 45H70L60.7692 54L51.5385 45H58.6564C58 38.48 52.8308 34 46.4103 34C39.5385 34 34.1026 39.14 34.1026 46.4C34.1026 51.08 38.1026 57.28 46.4103 64.68C47.7231 63.5 48.9333 62.36 50.041 61.26C49.6801 60.5656 49.4904 59.7985 49.4872 59.02C49.4872 57.6939 50.0275 56.4221 50.9892 55.4845C51.9509 54.5468 53.2553 54.02 54.6154 54.02C55.9755 54.02 57.2799 54.5468 58.2416 55.4845C59.2033 56.4221 59.7436 57.6939 59.7436 59.02C59.7429 59.7934 59.5576 60.556 59.2023 61.2475C58.8471 61.9391 58.3317 62.5405 57.6968 63.0042C57.062 63.4679 56.3252 63.7813 55.5447 63.9194C54.7642 64.0575 53.9615 64.0166 53.2 63.8Z" fill="#012831"/>
<circle cx="50" cy="50" r="49.25" stroke="#03B58B" stroke-width="1.5"/>
</svg>
