<svg width="90" height="68" viewBox="0 0 90 68" fill="none" xmlns="http://www.w3.org/2000/svg">
<path d="M7.84895 42.2814H37.3003L38.657 39.9316H6.49219L7.84895 42.2814Z" fill="white"/>
<path d="M17.3197 58.6912H27.8253L29.1804 56.3414H15.9629L17.3197 58.6912Z" fill="white"/>
<path d="M15.9626 56.3415H29.1801L37.2987 42.2815H7.8457L15.9626 56.3415Z" fill="#2C9C48"/>
<path d="M22.5731 67.7893L27.826 58.6912H17.3203L22.5731 67.7893Z" fill="#994523"/>
<path d="M22.5733 0C16.0906 0 10.2507 2.73721 6.13477 7.11203H39.0152C34.8975 2.73721 29.056 0 22.5733 0Z" fill="#F7EB24"/>
<path d="M39.0138 7.11206H6.13339C5.43978 7.84965 4.79523 8.63462 4.20312 9.46187H40.9441C40.3537 8.63462 39.7074 7.85135 39.0138 7.11206Z" fill="white"/>
<path d="M0.242188 25.8717C0.524706 27.8003 1.05084 29.7339 1.83241 31.5187C2.58693 33.2426 3.54444 34.8666 4.49858 36.4839C4.94012 37.2317 5.36813 37.9862 5.80121 38.7373C5.8655 38.8473 6.36794 39.9317 6.49144 39.9317H38.6563C38.9557 39.93 40.2753 37.1521 40.4986 36.763C41.1939 35.5535 41.8723 34.3354 42.4965 33.0869C43.6367 30.8065 44.5384 28.4025 44.9089 25.87H0.242188V25.8717Z" fill="#F6D7B0"/>
<path d="M45.1147 23.5219H0.0351562C0.0672991 24.3153 0.128199 25.1002 0.241545 25.8717H44.9066C45.0216 25.1019 45.0825 24.3153 45.1147 23.5219Z" fill="white"/>
<path d="M45.1506 22.5711C45.1506 22.8909 45.1286 23.2055 45.115 23.5219H0.0355274C0.0219936 23.2055 0 22.8909 0 22.5711C0 17.682 1.55978 13.1583 4.20395 9.46191H40.9449C41.7451 10.5801 42.4455 11.7728 43.0325 13.0281C43.31 13.6185 43.562 14.2241 43.7853 14.8416C44.0645 15.5995 44.3013 16.376 44.4959 17.1677C44.6363 17.7328 44.7547 18.3046 44.8477 18.8848C45.0474 20.0843 45.1506 21.3159 45.1506 22.5711Z" fill="#27BFEA"/>
<path d="M48.5318 15.0412C47.1243 15.6046 45.7794 16.3388 44.4953 17.1677C44.6357 17.7328 44.7542 18.3046 44.8472 18.8849C44.7305 18.9779 44.6138 19.0726 44.4987 19.1674C42.8307 20.5275 41.2371 21.979 39.7382 23.5219C38.9972 24.2832 38.2799 25.0664 37.5863 25.8717C37.4408 26.0409 37.297 26.2117 37.1532 26.3843C35.003 28.9574 33.4382 32.3781 30.7788 34.4505C28.2547 36.4179 25.1859 37.5311 21.975 37.5311C15.0085 37.5311 9.22446 32.4982 8.05886 25.8717C7.92522 25.107 7.85247 24.3238 7.8474 23.5219C7.8457 23.4847 7.8457 23.4458 7.8457 23.4085C7.8457 18.198 10.8096 13.3055 15.4246 10.8864C19.3715 8.81738 23.4874 9.52451 27.6203 10.5226C31.9444 11.5681 36.3547 12.3886 40.7837 12.8302C41.528 12.9046 42.2775 12.9706 43.032 13.0281C43.3094 13.6185 43.5615 14.2241 43.7848 14.8416C45.3243 14.8585 46.8654 14.8044 48.388 14.6538L48.3965 14.664C48.1664 14.8264 48.07 14.9431 48.1292 15.0243C48.1173 15.0852 48.322 15.0599 48.5318 15.0294V15.0412Z" fill="white"/>
<path d="M48.5326 15.0294V15.0412C47.1251 15.6046 45.7802 16.3388 44.4962 17.1677C43.2307 17.9865 42.0262 18.8984 40.8792 19.8339C39.4667 20.986 38.1962 22.2226 37.0035 23.5219C36.3048 24.2848 35.6332 25.0698 34.9785 25.8717C33.9432 27.1354 32.9484 28.4431 31.9435 29.7779C29.8915 32.5049 27.205 34.5333 23.9315 35.1373C23.8875 35.1457 23.8418 35.1559 23.7962 35.1627C23.1787 35.2675 22.5392 35.3234 21.8811 35.3234C19.0136 35.3234 16.383 34.3134 14.3292 32.6284C14.3191 32.62 14.3089 32.6115 14.2988 32.6031C12.2535 30.9164 10.7817 28.5615 10.2183 25.8717C10.0576 25.1121 9.97135 24.3271 9.96458 23.5219C9.96289 23.4846 9.96289 23.4491 9.96289 23.4119C9.96289 19.0168 12.4633 14.889 16.3559 12.8487C18.0189 11.9758 19.7174 11.6899 21.4362 11.7254C21.4447 11.7254 21.4531 11.7237 21.4633 11.7254C22.4428 11.7491 23.4291 11.8743 24.4187 12.0587C24.4221 12.0587 24.4272 12.0587 24.4306 12.0604C25.1665 12.1957 25.9041 12.3632 26.6417 12.5425C30.289 13.4239 34.0091 14.1158 37.7462 14.488C39.7272 14.686 41.7556 14.823 43.7856 14.8416C45.3251 14.8585 46.8663 14.8044 48.3888 14.6538L48.3973 14.664C48.1672 14.8264 48.0708 14.9431 48.13 15.0243C48.1182 15.0852 48.3229 15.0598 48.5326 15.0294Z" fill="#002831"/>
<path fill-rule="evenodd" clip-rule="evenodd" d="M59.254 11.5021C59.0374 11.5952 58.8277 11.6256 58.6043 11.7204L55.676 20.8845L54.8724 21.2076L55.4696 12.9519C54.4461 13.3038 53.3735 13.6743 52.3771 14.0059C51.2673 14.373 50.2523 14.691 49.5028 14.8704L49.3743 15.6384L48.9243 18.3418L48.7077 18.4348L48.5893 16.1392L48.5318 15.0412V15.0294C48.322 15.0598 48.1173 15.0852 48.1292 15.0243C48.0699 14.9431 48.1664 14.8264 48.3965 14.664L48.388 14.6538L47.0938 13.2378L46.0957 12.1467L46.3173 12.0536L47.9583 13.2514L49.1679 14.1362C49.6263 13.8638 50.2032 13.5457 50.8478 13.2057C52.0252 12.5865 53.431 11.8946 54.7709 11.2721L48.4895 5.84668L49.2305 5.51172L57.8092 9.81717C58.0308 9.72413 58.2525 9.63108 58.4639 9.60063C61.2418 8.43503 63.7134 7.88521 63.9502 8.39781C64.1972 8.91886 62.0386 10.3382 59.254 11.5021Z" fill="#002831"/>
<path d="M32.2386 19.1961C31.9392 19.2079 31.6398 19.2181 31.3403 19.2215C30.8853 19.2248 30.3963 19.2181 30.0123 18.966C29.9244 18.9102 29.8347 18.807 29.8753 18.7106C29.8939 18.67 29.9277 18.6446 29.9633 18.6141C30.4556 18.2216 30.8582 17.7192 31.1356 17.1525C31.5687 17.7902 31.9426 18.4703 32.2386 19.1961Z" fill="#002831" stroke="#D8E3E5" stroke-miterlimit="10"/>
<path d="M31.2181 19.7459C30.7123 19.7459 30.1828 19.7053 29.7243 19.4042C29.3961 19.1995 29.2557 18.8273 29.391 18.5059C29.4655 18.3401 29.5754 18.2538 29.633 18.2064C30.066 17.8613 30.4213 17.4181 30.6649 16.9224C30.7478 16.7549 30.9119 16.6433 31.098 16.6297C31.2824 16.6179 31.4634 16.7042 31.5683 16.8581C32.0352 17.545 32.4243 18.2639 32.7221 18.9965C32.7863 19.1555 32.7694 19.3348 32.6764 19.4786C32.5833 19.6224 32.426 19.7121 32.2551 19.7171C31.9371 19.729 31.641 19.7391 31.3433 19.7442L31.2181 19.7459ZM30.6903 18.6649C30.8442 18.6903 31.0202 18.697 31.2181 18.697H31.3348C31.3687 18.697 31.4025 18.6953 31.4363 18.6953C31.3433 18.5109 31.2452 18.3265 31.1403 18.1438C31.0033 18.3299 30.8527 18.5025 30.6903 18.6649Z" fill="#002831" stroke="#D8E3E5" stroke-miterlimit="10"/>
<path d="M29.0506 22.5406C29.0878 22.8062 29.328 23.0075 29.5835 23.0989C29.8355 23.1869 30.1096 23.1919 30.3786 23.2292C30.4632 23.241 30.5562 23.2579 30.6306 23.3104C30.7152 23.3696 30.7677 23.4694 30.8083 23.5692C31.1111 24.2831 31.1703 25.0968 30.9707 25.848C30.8962 26.1288 30.7863 26.4147 30.8117 26.7057C30.859 27.1794 31.2549 27.538 31.4511 27.9711C31.6321 28.3703 31.6406 28.7916 31.5848 29.2247L31.5814 29.228C30.7338 30.6931 29.5767 31.9466 28.1929 32.9059C28.1996 32.1581 28.1675 31.407 27.9492 30.6931C27.6786 29.8049 27.0729 28.9692 26.1949 28.6664C25.6333 28.4735 24.9701 28.4921 24.5235 28.0963C24.29 27.8899 24.1395 27.5854 23.8654 27.4416C23.6759 27.3418 23.4577 27.3299 23.2445 27.3079C22.4934 27.2335 21.6797 26.956 21.3177 26.2946C20.981 25.6872 21.1147 24.9327 21.3295 24.2747C21.5477 23.6166 21.8404 22.9534 21.7998 22.2615C21.7812 21.9688 21.7118 21.644 21.8878 21.4106C21.9622 21.3074 22.0722 21.2397 22.1804 21.1771C22.6761 20.881 23.2276 20.947 23.7233 20.651C24.2156 20.8878 24.8398 20.7592 25.1224 21.2278C25.2103 21.3716 25.2695 21.5391 25.3744 21.6762C25.5893 21.9604 25.9513 22.0906 26.2914 22.1972C26.4064 22.2344 26.5282 22.2683 26.6466 22.2497C26.9055 22.2023 27.0492 21.9062 27.0543 21.6423C27.0696 20.854 26.2694 20.2703 25.4929 20.1248C24.7164 19.981 23.9128 20.1248 23.1295 20.0284C22.8182 19.9912 22.5002 19.9134 22.26 19.7138C22.0163 19.5175 21.8641 19.1809 21.9605 18.8848C22.1382 18.3333 22.9231 18.2927 23.3291 17.8816C23.4882 17.7192 23.5812 17.5077 23.6912 17.3115C24.0718 16.6263 24.6673 16.0985 25.256 15.5809C25.4556 15.4032 25.6637 15.2222 25.9073 15.1139C26.1695 14.9955 26.4656 14.9668 26.7211 14.8365C27.1389 14.625 27.3724 14.197 27.528 13.7419H27.5314C28.971 14.5997 30.2026 15.7619 31.1415 17.1457V17.1491C30.8641 17.7158 30.4615 18.2183 29.9692 18.6107C29.932 18.6395 29.8981 18.6666 29.8812 18.7072C29.8406 18.8036 29.9286 18.9068 30.0182 18.9626C30.4023 19.2147 30.8912 19.2215 31.3462 19.2181C31.6457 19.2147 31.9451 19.2028 32.2445 19.1927C32.5508 19.9252 32.7808 20.6983 32.9246 21.5019C32.7402 21.5797 32.5541 21.6609 32.3664 21.7269C31.8961 21.8927 31.3902 21.9671 30.8895 21.9418C30.5494 21.9231 30.2094 21.8572 29.8727 21.9012C29.5276 21.9519 29.0032 22.204 29.0506 22.5406Z" fill="#00B58A" stroke="#D8E3E5" stroke-miterlimit="10"/>
<path d="M28.1921 33.4303C28.1076 33.4303 28.0247 33.41 27.9468 33.3694C27.7743 33.2781 27.666 33.0971 27.6677 32.9008C27.6745 32.263 27.6525 31.5204 27.4461 30.8471C27.1923 30.0113 26.6594 29.382 26.0217 29.1621C25.866 29.1097 25.6884 29.0724 25.5006 29.0335C25.0675 28.9456 24.5769 28.8441 24.1743 28.4888C24.0525 28.3805 23.9561 28.2638 23.8698 28.1589C23.7784 28.0472 23.6921 27.9441 23.6177 27.9035C23.5399 27.8629 23.4046 27.8493 23.2608 27.8358L23.1863 27.829C22.0765 27.7191 21.2459 27.264 20.8534 26.545C20.5066 25.9191 20.4965 25.1222 20.8264 24.1106C20.867 23.9905 20.9076 23.8721 20.9499 23.7536C21.1292 23.241 21.3 22.7572 21.2713 22.2903C21.2679 22.248 21.2645 22.2023 21.2594 22.1566C21.2324 21.8572 21.1952 21.4478 21.4658 21.0909C21.5978 20.9065 21.7856 20.7965 21.9091 20.7238C22.1374 20.5867 22.3692 20.5123 22.5858 20.4581C22.3624 20.3956 22.1256 20.2924 21.9158 20.1164C21.4844 19.7696 21.295 19.208 21.4523 18.7224C21.6282 18.1794 22.1002 17.9595 22.4792 17.7835C22.6687 17.6956 22.8463 17.6127 22.9461 17.5128C23.0155 17.4418 23.0797 17.3234 23.1474 17.1965C23.1728 17.1491 23.1982 17.1001 23.2252 17.0544C23.6532 16.2847 24.3164 15.7027 24.9 15.1884C25.103 15.0074 25.3602 14.779 25.6867 14.6352C25.8423 14.5659 26.0014 14.5219 26.1418 14.483C26.267 14.4491 26.3854 14.4153 26.475 14.3713C26.7017 14.2563 26.876 14.0042 27.0232 13.5745C27.0959 13.363 27.2955 13.2192 27.5188 13.2192C27.6136 13.2192 27.71 13.2446 27.7912 13.2937C29.285 14.1852 30.591 15.4151 31.5671 16.8531C31.6264 16.9394 31.6585 17.0425 31.6585 17.1474C31.6585 17.2269 31.6399 17.3098 31.6044 17.3809C31.3726 17.8546 31.0613 18.2893 30.6891 18.6632C30.8431 18.6886 31.019 18.6954 31.217 18.6954H31.3337C31.6196 18.692 31.9089 18.6818 32.1982 18.67C32.4181 18.6632 32.6363 18.7884 32.7209 18.9897C33.044 19.7612 33.2843 20.5749 33.4348 21.4089C33.4788 21.6508 33.3485 21.8894 33.1218 21.9841L33.017 22.0281C32.8579 22.0957 32.6972 22.1634 32.5348 22.2209C31.9985 22.4104 31.4301 22.495 30.8566 22.4645C30.745 22.4578 30.635 22.4476 30.5233 22.4375C30.3271 22.4189 30.1292 22.3935 29.9346 22.4206C29.8264 22.4358 29.7062 22.4848 29.6267 22.5322C29.6589 22.5576 29.7029 22.583 29.7604 22.605C29.8788 22.6472 30.0378 22.6625 30.2053 22.6811C30.2865 22.6895 30.3677 22.698 30.4489 22.7081C30.5826 22.7251 30.7602 22.7606 30.9294 22.879C31.1324 23.0194 31.2339 23.2258 31.2914 23.3696C31.6382 24.1867 31.7059 25.1172 31.4758 25.9816C31.4606 26.0425 31.442 26.1034 31.4233 26.166C31.3692 26.3504 31.3202 26.5247 31.332 26.6583C31.3489 26.8207 31.4724 27.0051 31.6145 27.22C31.7194 27.3773 31.8378 27.555 31.9275 27.7546C32.188 28.3281 32.1525 28.9066 32.1034 29.2907C32.0933 29.3736 32.0628 29.4514 32.0171 29.5191C31.1408 31.0247 29.9211 32.3442 28.4899 33.3356C28.4002 33.3982 28.297 33.4303 28.1921 33.4303ZM23.748 21.2245C23.5077 21.3277 23.2726 21.3801 23.0594 21.4275C22.8226 21.48 22.6196 21.5239 22.4437 21.6288C22.3997 21.6542 22.3252 21.6982 22.3066 21.7185C22.2762 21.7743 22.2931 21.9553 22.3032 22.0636C22.3083 22.1194 22.3134 22.1753 22.3168 22.2294C22.3574 22.9078 22.1442 23.5151 21.9378 24.1021C21.8989 24.2155 21.8583 24.3271 21.8211 24.4388C21.5876 25.1544 21.5707 25.6788 21.7703 26.0392C22.0816 26.6093 22.9376 26.7514 23.2912 26.7852L23.3623 26.792C23.5788 26.8123 23.8478 26.8394 24.1066 26.9764C24.3655 27.1134 24.5397 27.3232 24.6784 27.4907C24.7461 27.5719 24.8087 27.648 24.8696 27.7021C25.0608 27.8713 25.3619 27.9322 25.7104 28.0033C25.9235 28.0472 26.1418 28.0912 26.3634 28.1674C27.3192 28.4972 28.0974 29.3837 28.4476 30.5375C28.5829 30.979 28.6523 31.4307 28.6861 31.8655C29.6335 31.0704 30.4489 30.1112 31.0765 29.0487C31.1121 28.6867 31.0799 28.416 30.9733 28.1826C30.9175 28.0608 30.8329 27.9322 30.7433 27.7969C30.5504 27.5076 30.3339 27.1811 30.2899 26.7531C30.2594 26.4164 30.344 26.1254 30.4185 25.87C30.4337 25.8159 30.4489 25.7617 30.4641 25.7093C30.635 25.0681 30.5859 24.3796 30.3254 23.7689C30.322 23.7587 30.3187 23.7503 30.3153 23.7435C30.3136 23.7435 30.3119 23.7435 30.3119 23.7435C30.2391 23.7333 30.1698 23.7266 30.1004 23.7198C29.8889 23.6978 29.6504 23.6741 29.4102 23.5895C28.928 23.4153 28.5931 23.0397 28.5322 22.61C28.5 22.385 28.5609 22.1617 28.7081 21.9655C28.9585 21.6339 29.4339 21.4326 29.7959 21.3818C30.092 21.3429 30.3677 21.37 30.6282 21.3937C30.7247 21.4038 30.8194 21.4123 30.9158 21.4174C31.3337 21.4377 31.7854 21.3751 32.188 21.2313C32.2337 21.2144 32.2794 21.1974 32.3234 21.1805C32.2134 20.6848 32.0696 20.1976 31.8903 19.7273C31.7059 19.7341 31.5265 19.7375 31.3472 19.7409H31.2203C30.7145 19.7409 30.185 19.7003 29.7265 19.3991C29.3983 19.1944 29.2579 18.8222 29.3933 18.5008C29.4677 18.335 29.576 18.2488 29.6352 18.2014C29.9905 17.9189 30.2916 17.5704 30.5233 17.1813C29.7688 16.1392 28.8232 15.2256 27.754 14.505C27.5425 14.8754 27.2769 15.1377 26.9504 15.3035C26.7694 15.3948 26.585 15.4456 26.4243 15.4912C26.3109 15.5234 26.2027 15.5521 26.1164 15.591C25.9354 15.6706 25.7561 15.8296 25.5987 15.9717C25.0506 16.4538 24.4856 16.9512 24.1438 17.567L24.0762 17.6922C23.9814 17.8681 23.8749 18.0694 23.6989 18.2488C23.4638 18.4856 23.1779 18.6175 22.9258 18.736C22.7109 18.8358 22.4893 18.939 22.4538 19.0472C22.4352 19.1065 22.4859 19.23 22.5824 19.3078C22.7093 19.4144 22.8987 19.4769 23.1863 19.5108C23.369 19.5328 23.567 19.5429 23.8275 19.5429C23.9493 19.5429 24.0711 19.5412 24.1929 19.5395C24.3198 19.5378 24.4483 19.5362 24.5752 19.5362C24.851 19.5362 25.2147 19.5446 25.5852 19.614C26.5884 19.8001 27.595 20.5613 27.5747 21.6559C27.5679 22.1313 27.2786 22.6675 26.7406 22.7674C26.6764 22.7775 26.6256 22.7809 26.5749 22.7809C26.4074 22.7809 26.2619 22.742 26.1282 22.698C25.7222 22.5694 25.2587 22.3986 24.9525 21.9925C24.8628 21.8741 24.8019 21.754 24.7495 21.6474C24.7241 21.5984 24.7004 21.5493 24.6734 21.5036C24.6192 21.414 24.489 21.3818 24.2031 21.3277C24.0593 21.3023 23.9053 21.2753 23.748 21.2245ZM25.2655 20.6222C25.3771 20.7085 25.4803 20.8185 25.5666 20.9606C25.6072 21.0266 25.6461 21.1027 25.685 21.1788C25.7205 21.2499 25.7544 21.3175 25.7865 21.3615C25.9066 21.5206 26.1773 21.6153 26.4446 21.6999C26.4717 21.7083 26.4936 21.7151 26.5106 21.7202C26.519 21.6982 26.5241 21.6694 26.5258 21.6373C26.5342 21.1535 25.9455 20.7457 25.3923 20.6425C25.35 20.6358 25.3077 20.629 25.2655 20.6222Z" fill="#00B58A" stroke="#D8E3E5" stroke-miterlimit="10"/>
<path d="M18.459 16.7059C18.1477 16.8463 17.7484 16.8531 17.5488 17.1271C17.3373 17.4198 17.4828 17.8224 17.5962 18.1659C17.7078 18.5093 17.7264 18.9796 17.3999 19.1386C17.1411 19.2638 16.8197 19.098 16.5524 19.2012C16.3494 19.2756 16.231 19.482 16.0855 19.6444C15.5001 20.3059 14.3616 20.3803 13.9623 21.1687C13.7847 21.5206 13.8033 21.9299 13.7695 22.3224C13.7289 22.7893 13.6138 23.2478 13.4261 23.6724C13.3922 23.7536 13.3516 23.8348 13.2823 23.8873C13.13 24.0023 12.9118 23.9347 12.7528 23.8315C12.3197 23.5388 11.9492 22.9619 11.44 23.0803C10.9561 23.192 10.8546 23.8788 11.0627 24.3339C11.2742 24.789 11.9289 25.1781 12.2537 25.5587C12.8306 26.2388 12.2537 27.4416 11.2471 28.0489C10.6516 26.6651 10.3184 25.1409 10.3184 23.5388C10.3184 18.8595 13.1368 14.8416 17.1699 13.0873C16.9922 13.583 17.2257 14.1565 17.6029 14.5269C17.992 14.9042 18.5063 15.1123 19.0054 15.3153C19.2219 15.8262 18.9614 16.4843 18.459 16.7059Z" fill="#00B58A" stroke="#D8E3E5" stroke-miterlimit="10"/>
<path d="M11.2481 28.5768C11.194 28.5768 11.1398 28.5683 11.0874 28.5514C10.9436 28.5057 10.8269 28.3991 10.766 28.2604C10.1214 26.7632 9.79492 25.1764 9.79492 23.5439C9.79492 18.7969 12.6083 14.505 16.9611 12.6119C17.1523 12.529 17.3756 12.5679 17.5278 12.71C17.6801 12.8521 17.7342 13.0721 17.6632 13.2683C17.5718 13.5255 17.697 13.8909 17.9694 14.1565C18.2789 14.4576 18.7205 14.6369 19.1857 14.8264C19.3143 14.8788 19.4327 14.9854 19.4868 15.114C19.8117 15.882 19.4293 16.8497 18.668 17.1847C18.5344 17.2456 18.3974 17.2845 18.2756 17.3183C18.1724 17.3471 17.9981 17.3978 17.9711 17.435C17.9254 17.4976 18.0404 17.8411 18.0827 17.9696C18.0827 17.9713 18.0945 18.0035 18.0945 18.0052C18.328 18.7275 18.1453 19.3568 17.6293 19.6089C17.4263 19.707 17.1793 19.7223 16.9154 19.6986C16.841 19.6918 16.7378 19.6918 16.7361 19.6918C16.709 19.7087 16.6413 19.7916 16.5974 19.8474C16.5585 19.8965 16.5179 19.9456 16.4773 19.9929C16.1491 20.3651 15.7075 20.5783 15.3184 20.7661C14.9175 20.9589 14.5707 21.1264 14.4286 21.4072C14.3372 21.5865 14.3237 21.8386 14.3085 22.1059C14.3034 22.1939 14.2983 22.2818 14.2915 22.3698C14.2459 22.9027 14.1156 23.4136 13.9041 23.8873C13.8551 24.0074 13.7688 24.18 13.5929 24.3102C13.4541 24.4151 13.2782 24.4726 13.0921 24.4726C12.8299 24.4726 12.6083 24.3644 12.4679 24.2713C12.3021 24.1597 12.165 24.0345 12.0314 23.9144C11.8808 23.7773 11.6727 23.5896 11.5763 23.5896C11.4985 23.6251 11.4376 23.8958 11.5391 24.1191C11.6203 24.2933 11.8859 24.52 12.121 24.7213C12.3071 24.8803 12.5 25.0444 12.6523 25.2204C12.9449 25.5672 13.0617 26.0256 12.9821 26.5146C12.8586 27.2691 12.297 28.0287 11.5188 28.499C11.4359 28.5514 11.3429 28.5768 11.2481 28.5768ZM10.9487 25.0681C11.0502 25.7956 11.2261 26.5095 11.4748 27.2031C11.7269 26.9375 11.9011 26.6313 11.9468 26.3471C11.9773 26.161 11.9451 26.0104 11.8538 25.9005C11.7573 25.7888 11.6051 25.6585 11.4427 25.5198C11.2803 25.3811 11.1043 25.2322 10.9487 25.0681ZM11.5763 22.5441C12.0771 22.5441 12.4425 22.874 12.7351 23.1396C12.8248 23.2208 12.9111 23.2986 12.9906 23.3595C13.131 23.0127 13.2156 22.6523 13.2477 22.2785C13.2545 22.2023 13.2579 22.1228 13.263 22.045C13.2833 21.6999 13.3053 21.3074 13.4947 20.9335C13.7976 20.3364 14.3643 20.064 14.865 19.8221C15.1932 19.663 15.5045 19.5142 15.694 19.2993C15.7227 19.2655 15.7515 19.2317 15.7786 19.1961C15.9054 19.0354 16.0814 18.8155 16.3741 18.7089C16.5449 18.6429 16.775 18.6345 17.0085 18.6548C17.0524 18.6582 17.0981 18.6632 17.1404 18.6632C17.1489 18.5989 17.1455 18.4738 17.0964 18.3249C16.9577 17.9087 16.7598 17.32 17.1218 16.8193C17.3637 16.4877 17.7257 16.3845 17.988 16.31C18.0827 16.283 18.1741 16.2576 18.24 16.2271C18.4295 16.1443 18.5547 15.9125 18.5547 15.6993C18.0979 15.5082 17.6226 15.2798 17.2351 14.9042C16.9425 14.6166 16.7429 14.2732 16.6464 13.9196C13.3103 15.674 11.1195 19.0371 10.8641 22.8012C10.9944 22.6896 11.1483 22.61 11.3192 22.5711C11.4054 22.5542 11.4917 22.5441 11.5763 22.5441Z" fill="#00B58A" stroke="#D8E3E5" stroke-miterlimit="10"/>
<path d="M28.1912 32.9059C26.3523 34.1815 24.1175 34.9292 21.7102 34.9292C19.9018 34.9292 18.1914 34.508 16.6722 33.7569C16.9345 33.3796 17.2018 33.0023 17.464 32.6251C17.7008 32.2884 17.941 31.9366 18.0121 31.5305C18.0933 31.0467 17.9191 30.5392 18.0273 30.0587C18.1424 29.5478 18.5704 29.0674 18.4232 28.5649C18.3048 28.1539 17.8615 27.9508 17.5097 27.7106C17.0664 27.4044 16.7213 26.9713 16.2747 26.6668C15.8264 26.364 15.1987 26.2151 14.7572 26.5298C14.4831 26.7226 14.3427 27.0508 14.1127 27.2995C13.9689 27.4518 13.7878 27.5736 13.683 27.758C13.5239 28.0473 13.595 28.4059 13.5121 28.7273C13.3683 29.3042 12.7948 29.6341 12.2534 29.8929C11.8644 29.3161 11.5277 28.702 11.2469 28.054C12.2534 27.4467 12.8303 26.2456 12.2534 25.5638C11.9286 25.1832 11.2722 24.7941 11.0625 24.339C10.8561 23.8839 10.9559 23.1954 11.4397 23.0854C11.9506 22.967 12.3194 23.5439 12.7525 23.8366C12.9115 23.9398 13.1298 24.0074 13.282 23.8924C13.3531 23.8399 13.3937 23.7587 13.4258 23.6775C13.6153 23.2529 13.7286 22.7928 13.7692 22.3275C13.8031 21.9351 13.7845 21.524 13.9621 21.1738C14.3613 20.3854 15.5016 20.311 16.0852 19.6495C16.229 19.4871 16.3474 19.279 16.5521 19.2063C16.8177 19.1031 17.1409 19.2689 17.3997 19.1437C17.7245 18.9847 17.7076 18.5144 17.5959 18.171C17.4809 17.8275 17.3371 17.4232 17.5486 17.1322C17.7482 16.8582 18.1474 16.8514 18.4587 16.711C18.9612 16.4894 19.22 15.8313 19.0068 15.3238C18.5078 15.1208 17.9935 14.9127 17.6044 14.5354C17.2271 14.1649 16.9937 13.5914 17.1713 13.0958H17.1747C18.5653 12.4935 20.098 12.1569 21.7102 12.1569C23.8333 12.1569 25.8211 12.7371 27.523 13.7522C27.3674 14.2072 27.1339 14.6369 26.716 14.8467C26.4606 14.977 26.1645 15.0057 25.9023 15.1242C25.6587 15.2307 25.4506 15.4134 25.251 15.5911C24.6623 16.1087 24.0668 16.6383 23.6862 17.3217C23.5745 17.5179 23.4831 17.7294 23.3241 17.8918C22.9164 18.3029 22.1331 18.3435 21.9555 18.895C21.8591 19.1911 22.0113 19.5277 22.255 19.724C22.4952 19.9236 22.8132 20.0014 23.1245 20.0386C23.9095 20.1351 24.7113 19.9913 25.4878 20.1351C26.2644 20.2789 27.0645 20.8642 27.0493 21.6525C27.0459 21.9148 26.9021 22.2108 26.6416 22.2599C26.5232 22.2785 26.4014 22.2446 26.2863 22.2074C25.9463 22.1008 25.5826 21.9706 25.3694 21.6864C25.2662 21.5493 25.207 21.3835 25.1174 21.2381C25.0615 21.1433 24.9888 21.0604 24.9042 20.9826C24.329 20.4548 23.451 20.4227 22.7811 20.8236C22.5798 20.9454 22.3768 21.0655 22.1737 21.1873C22.0672 21.2499 21.9555 21.3176 21.8811 21.4208C21.7035 21.6542 21.7745 21.979 21.7931 22.2717C21.8337 22.9636 21.541 23.6251 21.3228 24.2849C21.108 24.9429 20.9743 25.6975 21.311 26.3048C21.673 26.9663 22.4867 27.2437 23.2378 27.3181C23.4527 27.3401 23.6709 27.352 23.8587 27.4518C24.1328 27.5956 24.2833 27.9001 24.5168 28.1065C24.9651 28.5023 25.6266 28.4837 26.1882 28.6766C27.0645 28.9794 27.6719 29.8168 27.9425 30.7033C28.1642 31.407 28.198 32.1582 28.1912 32.9059Z" fill="#002831" stroke="#D8E3E5" stroke-miterlimit="10"/>
<path d="M21.7093 35.4536C19.8602 35.4536 18.0873 35.0409 16.4395 34.2271C16.3025 34.1595 16.2027 34.036 16.1638 33.8888C16.1266 33.7416 16.1536 33.5843 16.2416 33.4591L17.0333 32.3273C17.2262 32.0533 17.4427 31.7454 17.4952 31.4425C17.5223 31.2785 17.507 31.0805 17.4901 30.8724C17.4681 30.5916 17.4411 30.2753 17.5155 29.9454C17.5679 29.7085 17.666 29.4937 17.7523 29.3025C17.8589 29.0691 17.9587 28.8474 17.9198 28.7121C17.8775 28.5666 17.6525 28.4245 17.4326 28.2858C17.3582 28.2384 17.2837 28.191 17.2127 28.142C16.9606 27.9677 16.7491 27.7698 16.5444 27.5786C16.3533 27.3993 16.1739 27.2318 15.9794 27.0999C15.658 26.8816 15.2621 26.8123 15.0608 26.9561C14.966 27.0221 14.8815 27.1439 14.7833 27.286C14.7021 27.401 14.6108 27.533 14.4974 27.6548C14.4382 27.7174 14.379 27.7732 14.3181 27.8256C14.242 27.895 14.1692 27.961 14.1405 28.0134C14.1033 28.0811 14.0948 28.2198 14.0847 28.3653C14.0762 28.5125 14.0644 28.68 14.0204 28.8559C13.8021 29.7322 12.9106 30.1602 12.4809 30.3649C12.2474 30.4766 11.9649 30.4004 11.8194 30.1856C11.4134 29.5816 11.0582 28.9354 10.7672 28.2638C10.6623 28.0236 10.752 27.7427 10.977 27.6057C11.4845 27.2995 11.8753 26.7937 11.948 26.3488C11.9785 26.1627 11.9463 26.0121 11.855 25.9021C11.7585 25.7905 11.6063 25.6602 11.4439 25.5215C11.1275 25.2508 10.7672 24.9463 10.5879 24.5589C10.3865 24.1191 10.3882 23.5743 10.5879 23.17C10.7418 22.8587 11.0023 22.6472 11.3238 22.5728C11.4067 22.5542 11.4912 22.544 11.5758 22.544C12.0766 22.544 12.442 22.8739 12.7347 23.1395C12.8243 23.2207 12.9106 23.2986 12.9901 23.3595C13.1305 23.0127 13.2151 22.6523 13.2473 22.2785C13.254 22.2023 13.2574 22.1228 13.2625 22.045C13.2828 21.6999 13.3048 21.3074 13.4942 20.9335C13.7971 20.3363 14.3638 20.064 14.8645 19.8221C15.1927 19.663 15.504 19.5142 15.6935 19.2993C15.7222 19.2655 15.751 19.2316 15.7781 19.1961C15.905 19.0354 16.0809 18.8155 16.3736 18.7089C16.5444 18.6429 16.7745 18.6345 17.008 18.6548C17.052 18.6581 17.0976 18.6632 17.1399 18.6632C17.1484 18.5989 17.145 18.4737 17.0959 18.3249C16.9572 17.9087 16.7593 17.32 17.1213 16.8192C17.3632 16.4877 17.7253 16.3845 17.9875 16.31C18.0822 16.283 18.1736 16.2576 18.2395 16.2271C18.429 16.1442 18.5542 15.9125 18.5542 15.6993C18.0974 15.5081 17.6221 15.2798 17.2347 14.9042C16.6612 14.3425 16.4412 13.561 16.673 12.913C16.7271 12.7608 16.8473 12.6457 16.9961 12.595C18.4899 11.9521 20.0751 11.6273 21.7059 11.6273C23.851 11.6273 25.9538 12.2042 27.786 13.2954C27.9991 13.4222 28.0939 13.6794 28.0144 13.9145C27.7775 14.6098 27.429 15.0666 26.9486 15.3085C26.7676 15.3999 26.5832 15.4506 26.4224 15.4963C26.3091 15.5285 26.2008 15.5572 26.1145 15.5961C25.9335 15.6756 25.7542 15.8347 25.5969 15.9768C25.0488 16.4589 24.4837 16.9563 24.142 17.5721L24.0743 17.6972C23.9796 17.8732 23.873 18.0745 23.6971 18.2538C23.4619 18.4907 23.176 18.6226 22.9239 18.741C22.7091 18.8409 22.4875 18.9441 22.452 19.0523C22.4333 19.1115 22.4841 19.235 22.5805 19.3128C22.7074 19.4194 22.8969 19.482 23.1845 19.5159C23.3672 19.5378 23.5651 19.548 23.8256 19.548C23.9474 19.548 24.0692 19.5463 24.191 19.5446C24.3179 19.5429 24.4465 19.5412 24.5734 19.5412C24.8491 19.5412 25.2129 19.5497 25.5833 19.6191C26.5865 19.8051 27.5931 20.5664 27.5728 21.661C27.566 22.1363 27.2768 22.6726 26.7388 22.7724C26.6745 22.7826 26.6238 22.786 26.573 22.786C26.4055 22.786 26.26 22.7471 26.1264 22.7031C25.7204 22.5745 25.2568 22.4036 24.9506 21.9976C24.861 21.8792 24.8001 21.7591 24.7476 21.6525C24.7223 21.6034 24.6986 21.5544 24.6715 21.5087C24.641 21.458 24.6021 21.4106 24.5514 21.3649C24.1758 21.0181 23.5313 20.9826 23.0525 21.2685L22.4452 21.6322C22.4029 21.6576 22.3268 21.7016 22.3082 21.7219C22.2777 21.7777 22.2946 21.9587 22.3048 22.067C22.3098 22.1228 22.3149 22.1786 22.3183 22.2328C22.3589 22.9112 22.1457 23.5185 21.9394 24.1055C21.9004 24.2189 21.8598 24.3305 21.8226 24.4422C21.5892 25.1578 21.5723 25.6822 21.7719 26.0425C22.0832 26.6127 22.9392 26.7548 23.2927 26.7886L23.3638 26.7954C23.5803 26.8157 23.8493 26.8427 24.1082 26.9798C24.367 27.1168 24.5412 27.3266 24.68 27.4941C24.7476 27.5753 24.8102 27.6514 24.8711 27.7055C25.0623 27.8747 25.3634 27.9356 25.7119 28.0066C25.9251 28.0506 26.1433 28.0946 26.3649 28.1707C27.3207 28.5006 28.0989 29.3871 28.4491 30.5409C28.6961 31.3512 28.7232 32.1937 28.7164 32.911C28.7147 33.0801 28.6301 33.2392 28.4914 33.3356C26.4952 34.7211 24.1504 35.4536 21.7093 35.4536ZM17.4597 33.5437C18.8029 34.1172 20.229 34.4065 21.7093 34.4065C23.8442 34.4065 25.898 33.7924 27.6676 32.6284C27.6642 32.0583 27.6236 31.4273 27.4459 30.8488C27.1922 30.013 26.6593 29.3837 26.0215 29.1638C25.8659 29.1113 25.6882 29.0741 25.5004 29.0352C25.0674 28.9472 24.5768 28.8457 24.1741 28.4905C24.0523 28.3822 23.9559 28.2655 23.8696 28.1606C23.7783 28.0489 23.692 27.9457 23.6176 27.9051C23.5397 27.8645 23.4044 27.851 23.2606 27.8375L23.1862 27.8307C22.0764 27.7207 21.2457 27.2657 20.8533 26.5467C20.5065 25.9207 20.4963 25.1239 20.8262 24.1123C20.8668 23.9922 20.9074 23.8737 20.9497 23.7553C21.129 23.2427 21.2999 22.7589 21.2711 22.292C21.2677 22.2497 21.2644 22.204 21.2593 22.1583C21.2322 21.8589 21.195 21.4495 21.4657 21.0925C21.5976 20.9081 21.7854 20.7982 21.9089 20.7254L22.435 20.4108C22.2591 20.3465 22.0798 20.2534 21.9174 20.1181C21.486 19.7713 21.2965 19.2097 21.4538 18.7241C21.6298 18.1811 22.1018 17.9612 22.4807 17.7852C22.6702 17.6972 22.8478 17.6144 22.9476 17.5145C23.017 17.4435 23.0813 17.3251 23.1489 17.1982C23.1743 17.1508 23.1997 17.1018 23.2268 17.0561C23.6548 16.2863 24.3179 15.7044 24.9016 15.1901C25.1046 15.0091 25.3617 14.7807 25.6882 14.6369C25.8439 14.5675 26.0029 14.5236 26.1433 14.4847C26.2685 14.4508 26.3869 14.417 26.4766 14.373C26.6221 14.2986 26.7473 14.1683 26.8555 13.9704C25.2822 13.1211 23.511 12.6745 21.7076 12.6745C20.3001 12.6745 18.9298 12.9401 17.6322 13.4662C17.639 13.6929 17.7608 13.9534 17.9689 14.1565C18.2785 14.4576 18.72 14.6369 19.1852 14.8264C19.3138 14.8788 19.4322 14.9854 19.4864 15.114C19.8112 15.882 19.4288 16.8497 18.6676 17.1847C18.5339 17.2456 18.3969 17.2845 18.2751 17.3183C18.1719 17.3471 17.9976 17.3978 17.9706 17.435C17.9249 17.4976 18.0399 17.841 18.0822 17.9696C18.0822 17.9713 18.0941 18.0034 18.0941 18.0051C18.3275 18.7275 18.1448 19.3568 17.6288 19.6089C17.4258 19.707 17.1788 19.7222 16.9149 19.6986C16.8405 19.6918 16.7373 19.6918 16.7356 19.6918C16.7085 19.7087 16.6409 19.7916 16.5969 19.8474C16.558 19.8965 16.5174 19.9456 16.4768 19.9929C16.1469 20.3651 15.707 20.5783 15.3179 20.766C14.917 20.9589 14.5702 21.1264 14.4281 21.4072C14.3367 21.5865 14.3232 21.8386 14.308 22.1059C14.3029 22.1939 14.2978 22.2818 14.2911 22.3698C14.2454 22.9027 14.1151 23.4136 13.9036 23.8873C13.8546 24.0074 13.7683 24.18 13.5924 24.3102C13.4536 24.4151 13.2777 24.4726 13.0916 24.4726C12.8294 24.4726 12.6078 24.3644 12.4674 24.2713C12.3016 24.1597 12.1645 24.0345 12.0309 23.9144C11.8803 23.7773 11.6723 23.5895 11.5758 23.5895C11.498 23.6251 11.4371 23.8957 11.5386 24.119C11.6198 24.2933 11.8854 24.52 12.1206 24.7213C12.3066 24.8803 12.4995 25.0444 12.6518 25.2204C12.9444 25.5672 13.0612 26.0256 12.9816 26.5145C12.8801 27.1371 12.4792 27.763 11.904 28.2283C12.0647 28.5615 12.2424 28.888 12.4352 29.2027C12.7177 29.0335 12.9427 28.839 13.0036 28.5971C13.0239 28.5142 13.0307 28.4093 13.0375 28.2976C13.0527 28.0675 13.0696 27.78 13.2236 27.5025C13.3369 27.2995 13.4892 27.1608 13.6127 27.0491C13.6533 27.0119 13.6939 26.9747 13.7328 26.9358C13.792 26.8715 13.8563 26.7801 13.9223 26.6837C14.0576 26.4892 14.2115 26.2692 14.4535 26.0984C15.0083 25.7025 15.8762 25.7634 16.5647 26.2303C16.8253 26.408 17.0452 26.6127 17.2567 26.8106C17.4427 26.9831 17.617 27.1472 17.8031 27.2775C17.8623 27.3181 17.9266 27.3587 17.9909 27.3993C18.3394 27.6192 18.7707 27.8933 18.923 28.4177C19.0719 28.9253 18.8689 29.3736 18.7048 29.7339C18.632 29.8929 18.5644 30.0418 18.5356 30.1721C18.4967 30.3463 18.5136 30.5595 18.5322 30.7862C18.5525 31.0382 18.5762 31.3224 18.5254 31.6168C18.4324 32.1548 18.1313 32.5828 17.8894 32.9262L17.4597 33.5437ZM25.2991 20.6273C25.4057 20.7322 25.4954 20.8439 25.5664 20.9623C25.607 21.0283 25.6459 21.1044 25.6832 21.1805C25.7187 21.2516 25.7525 21.3192 25.7847 21.3632C25.9048 21.5222 26.1754 21.617 26.4427 21.7016C26.4698 21.71 26.4918 21.7168 26.5087 21.7219C26.5172 21.6999 26.5223 21.6711 26.5239 21.639C26.5324 21.1551 25.9437 20.7474 25.3905 20.6442C25.36 20.6375 25.3296 20.6324 25.2991 20.6273Z" fill="#002831" stroke="#D8E3E5" stroke-miterlimit="10"/>
<path d="M31.5841 29.2246C31.6399 28.7915 31.6315 28.3703 31.4504 27.971C31.2542 27.538 30.8583 27.1793 30.811 26.7056C30.7856 26.413 30.8956 26.1287 30.97 25.8479C31.1696 25.0968 31.1104 24.2831 30.8076 23.5692C30.767 23.4693 30.7145 23.3695 30.6299 23.3103C30.5555 23.2579 30.4642 23.2393 30.3779 23.2291C30.1072 23.1919 29.8348 23.1885 29.5828 23.0989C29.3273 23.0058 29.0871 22.8062 29.0499 22.5406C29.0025 22.2039 29.5269 21.9519 29.867 21.9045C30.2036 21.8605 30.5437 21.9265 30.8837 21.9451C31.3828 21.9705 31.8903 21.8977 32.3606 21.7302C32.5501 21.6643 32.7345 21.5831 32.9189 21.5052C33.0373 22.1667 33.0999 22.8485 33.0999 23.5438C33.1016 25.6111 32.5501 27.5532 31.5841 29.2246Z" fill="#002831" stroke="#D8E3E5" stroke-miterlimit="10"/>
<path d="M31.5837 29.7491C31.5279 29.7491 31.472 29.7406 31.4162 29.722C31.1794 29.6425 31.0322 29.4074 31.0643 29.1587C31.1168 28.7425 31.0897 28.4431 30.973 28.1876C30.9171 28.0658 30.8326 27.9372 30.7429 27.8019C30.55 27.5126 30.3335 27.1861 30.2895 26.7581C30.2591 26.4215 30.3436 26.1305 30.4181 25.875C30.4333 25.8209 30.4485 25.7668 30.4638 25.7143C30.6346 25.0731 30.5856 24.3846 30.325 23.7739C30.3217 23.7637 30.3183 23.7553 30.3149 23.7485C30.3132 23.7485 30.3115 23.7485 30.3115 23.7485C30.2388 23.7384 30.1694 23.7316 30.1 23.7248C29.8886 23.7028 29.65 23.6792 29.4098 23.5946C28.9277 23.4203 28.5927 23.0448 28.5318 22.6151C28.4997 22.3901 28.5606 22.1668 28.7077 21.9705C28.9581 21.6389 29.4335 21.4376 29.7955 21.3869C30.0916 21.348 30.3673 21.375 30.6279 21.3987C30.7243 21.4089 30.819 21.4173 30.9154 21.4224C31.3333 21.4427 31.785 21.3801 32.1876 21.2363C32.3314 21.1856 32.4701 21.1263 32.6106 21.0671L32.7188 21.0215C32.866 20.9605 33.0318 20.969 33.1722 21.0451C33.3126 21.1213 33.4091 21.2566 33.4378 21.4122C33.563 22.116 33.6273 22.8316 33.6273 23.5421C33.6273 25.6331 33.0792 27.6886 32.0404 29.4869C31.9406 29.6527 31.7664 29.7491 31.5837 29.7491ZM29.628 22.5339C29.6602 22.5592 29.7042 22.5846 29.7617 22.6066C29.8801 22.6489 30.0391 22.6641 30.2066 22.6827C30.2878 22.6912 30.369 22.6996 30.4502 22.7098C30.5839 22.7267 30.7615 22.7622 30.9307 22.8807C31.1337 23.0211 31.2352 23.2275 31.2927 23.3713C31.6395 24.1884 31.7072 25.1188 31.4771 25.9833C31.4619 26.0442 31.4433 26.1051 31.4247 26.1677C31.3705 26.3521 31.3215 26.5263 31.3333 26.66C31.3502 26.8224 31.4737 27.0068 31.6158 27.2216C31.6818 27.3198 31.7529 27.4263 31.8188 27.5414C32.3179 26.276 32.5784 24.9192 32.5784 23.5438C32.5784 23.109 32.553 22.6726 32.5006 22.2378C31.9745 22.4188 31.4162 22.4966 30.8596 22.4696C30.748 22.4628 30.638 22.4527 30.5264 22.4425C30.3301 22.4239 30.1322 22.3985 29.9376 22.4256C29.8277 22.4374 29.7076 22.4865 29.628 22.5339Z" fill="#002831" stroke="#D8E3E5" stroke-miterlimit="10"/>
<path d="M18.0109 31.5305C17.9398 31.9382 17.6996 32.2884 17.4627 32.625C17.2005 33.0023 16.9332 33.3795 16.671 33.7568C14.8845 32.872 13.3603 31.5339 12.2539 29.8912C12.7936 29.6324 13.3671 29.3025 13.5126 28.7256C13.5938 28.4042 13.5244 28.0455 13.6834 27.7562C13.7866 27.5718 13.9676 27.45 14.1131 27.2978C14.3432 27.0491 14.4836 26.7209 14.7577 26.528C15.1975 26.2134 15.8268 26.3622 16.2751 26.6651C16.7235 26.9679 17.0669 27.401 17.5101 27.7089C17.862 27.9491 18.3052 28.1521 18.4236 28.5632C18.5708 29.0656 18.1428 29.5478 18.0278 30.057C17.9195 30.5391 18.0938 31.045 18.0109 31.5305Z" fill="#00B58A" stroke="#D8E3E5" stroke-miterlimit="10"/>
<path d="M16.672 34.2813C16.5941 34.2813 16.5146 34.2644 16.4402 34.2272C14.5793 33.3069 12.9823 31.9078 11.8201 30.1839C11.7355 30.0571 11.7084 29.9014 11.749 29.7542C11.7896 29.6071 11.8911 29.4852 12.0282 29.4193C12.4832 29.201 12.9163 28.9507 13.0043 28.5988C13.0246 28.5159 13.0314 28.411 13.0381 28.2993C13.0533 28.0693 13.0703 27.7817 13.2242 27.5042C13.3376 27.3012 13.4898 27.1625 13.6133 27.0509C13.6539 27.0136 13.6945 26.9764 13.7334 26.9375C13.7926 26.8732 13.8569 26.7819 13.9229 26.6854C14.0582 26.4909 14.2122 26.271 14.4541 26.1001C15.009 25.7042 15.8768 25.7651 16.5654 26.2321C16.8259 26.4097 17.0458 26.6144 17.2573 26.8123C17.4434 26.9849 17.6176 27.149 17.8037 27.2792C17.8629 27.3198 17.9272 27.3604 17.9915 27.401C18.34 27.621 18.7714 27.895 18.9236 28.4195C19.0725 28.927 18.8695 29.3753 18.7054 29.7356C18.6327 29.8946 18.565 30.0435 18.5362 30.1738C18.4973 30.348 18.5142 30.5612 18.5329 30.7879C18.5532 31.0399 18.5768 31.3242 18.5261 31.6185C18.433 32.1565 18.1319 32.5845 17.89 32.9279L17.1 34.058C17.0001 34.2018 16.8377 34.2813 16.672 34.2813ZM13.0263 30.0723C13.9584 31.3089 15.1477 32.3375 16.5045 33.0802L17.0323 32.3257C17.2251 32.0516 17.4417 31.7437 17.4941 31.4409C17.5212 31.2768 17.506 31.0789 17.4891 30.8708C17.4671 30.5899 17.44 30.2736 17.5144 29.9437C17.5669 29.7069 17.665 29.492 17.7513 29.3008C17.8579 29.0674 17.9577 28.8458 17.9188 28.7104C17.8765 28.5649 17.6515 28.4228 17.4315 28.2841C17.3571 28.2368 17.2827 28.1894 17.2116 28.1403C16.9595 27.9661 16.7481 27.7681 16.5434 27.577C16.3522 27.3977 16.1729 27.2302 15.9783 27.0982C15.6586 26.8817 15.2594 26.8106 15.0597 26.9544C14.965 27.0204 14.8804 27.1422 14.7823 27.2843C14.7011 27.3993 14.6097 27.5313 14.4964 27.6531C14.4372 27.7157 14.378 27.7715 14.3171 27.824C14.2409 27.8933 14.1682 27.9593 14.1394 28.0118C14.1022 28.0794 14.0938 28.2181 14.0836 28.3636C14.0751 28.5108 14.0633 28.6783 14.0193 28.8542C13.8738 29.4362 13.4323 29.8202 13.0263 30.0723Z" fill="#00B58A" stroke="#D8E3E5" stroke-miterlimit="10"/>
<path d="M88.834 46.4059C88.834 46.0625 89.0776 45.8223 89.4176 45.8223C89.7577 45.8223 89.9996 46.0642 89.9996 46.4059C89.9996 46.7426 89.7577 46.9879 89.4176 46.9879C89.0776 46.9879 88.834 46.7442 88.834 46.4059ZM88.9846 46.4059C88.9846 46.6698 89.152 46.8475 89.4176 46.8475C89.6832 46.8475 89.8541 46.6698 89.8541 46.4059C89.8541 46.1403 89.6832 45.961 89.4176 45.961C89.152 45.9627 88.9846 46.1403 88.9846 46.4059ZM89.5648 46.4668L89.7069 46.6918H89.4921L89.3736 46.4854H89.3567V46.6918H89.1723V46.1048H89.4599C89.5868 46.1048 89.6714 46.1809 89.6714 46.2976C89.6748 46.3755 89.6342 46.4364 89.5648 46.4668ZM89.3567 46.2638V46.3484H89.4447C89.4701 46.3484 89.4921 46.3349 89.4921 46.3044C89.4921 46.274 89.4701 46.2638 89.4447 46.2638H89.3567Z" fill="#012831"/>
<path d="M48.7553 35.6279H48.0059V34.3202H48.7553V32.7638H50.3574V34.3202H51.7666V35.6279H50.3574V38.673C50.3574 39.0942 50.5282 39.2753 51.0273 39.2753H51.7666V40.6168H50.7668C49.5623 40.6168 48.7553 40.1059 48.7553 38.6629V35.6279Z" fill="#03B58B"/>
<path d="M54.504 40.6168H52.9121V34.3218H54.504V35.2997C54.9016 34.6517 55.5613 34.2322 56.436 34.2322V35.9002H56.0147C55.0708 35.9002 54.504 36.2639 54.504 37.4803V40.6168Z" fill="#03B58B"/>
<path d="M57.332 32.6386C57.332 32.1158 57.7414 31.7064 58.3098 31.7064C58.8664 31.7064 59.2877 32.1158 59.2877 32.6386C59.2877 33.1613 58.8664 33.5707 58.3098 33.5707C57.7414 33.5707 57.332 33.1613 57.332 32.6386ZM57.5029 34.3201H59.0948V40.6151H57.5029V34.3201Z" fill="#03B58B"/>
<path d="M64.3332 34.2186C65.9471 34.2186 67.2074 35.4807 67.2074 37.4465C67.2074 39.4122 65.9454 40.7199 64.3332 40.7199C63.3452 40.7199 62.6397 40.231 62.254 39.7201V43.6179H60.6621V34.3218H62.254V35.2303C62.6279 34.6957 63.3553 34.2186 64.3332 34.2186ZM63.9119 35.616C63.0593 35.616 62.2523 36.2758 62.2523 37.4684C62.2523 38.6611 63.0593 39.3209 63.9119 39.3209C64.7764 39.3209 65.5833 38.6391 65.5833 37.4465C65.5817 36.2521 64.7747 35.616 63.9119 35.616Z" fill="#03B58B"/>
<path d="M72.0343 34.2186C73.6482 34.2186 74.9086 35.4807 74.9086 37.4465C74.9086 39.4122 73.6466 40.7199 72.0343 40.7199C71.0464 40.7199 70.3409 40.231 69.9552 39.7201V43.6179H68.3633V34.3218H69.9552V35.2303C70.3291 34.6957 71.0565 34.2186 72.0343 34.2186ZM71.6131 35.616C70.7605 35.616 69.9535 36.2758 69.9535 37.4684C69.9535 38.6611 70.7605 39.3209 71.6131 39.3209C72.4776 39.3209 73.2845 38.6391 73.2845 37.4465C73.2845 36.2521 72.4776 35.616 71.6131 35.616Z" fill="#03B58B"/>
<path d="M78.8639 40.72C77.0453 40.72 75.6699 39.4478 75.6699 37.4702C75.6699 35.4807 77.091 34.2203 78.9079 34.2203C80.7265 34.2203 82.1476 35.4824 82.1476 37.4702C82.1476 39.4461 80.6927 40.72 78.8639 40.72ZM78.8639 39.3327C79.7047 39.3327 80.5117 38.7186 80.5117 37.4685C80.5117 36.2064 79.7284 35.6042 78.8859 35.6042C78.0451 35.6042 77.2838 36.2064 77.2838 37.4685C77.2838 38.7186 78.0113 39.3327 78.8639 39.3327Z" fill="#03B58B"/>
<path d="M52.175 45.8223C53.7889 45.8223 55.0509 47.0843 55.0509 49.0501C55.0509 51.0159 53.7889 52.3236 52.175 52.3236C51.187 52.3236 50.4815 51.8685 50.0958 51.3238V52.2221H48.5039V43.8125H50.0958V46.8475C50.4832 46.2655 51.2208 45.8223 52.175 45.8223ZM51.7554 47.2196C50.9028 47.2196 50.0958 47.8794 50.0958 49.0721C50.0958 50.2648 50.9028 50.9245 51.7554 50.9245C52.6199 50.9245 53.4268 50.2428 53.4268 49.0501C53.4268 47.8557 52.6199 47.2196 51.7554 47.2196Z" fill="#012831"/>
<path d="M58.6748 45.8223C59.6864 45.8223 60.38 46.2993 60.7539 46.8221V45.9238H62.356V52.2187H60.7539V51.2984C60.3783 51.8431 59.6627 52.3219 58.6629 52.3219C57.071 52.3219 55.7988 51.0142 55.7988 49.0484C55.7988 47.0826 57.0727 45.8223 58.6748 45.8223ZM59.0842 47.2196C58.2315 47.2196 57.4246 47.8557 57.4246 49.0501C57.4246 50.2427 58.2315 50.9245 59.0842 50.9245C59.9588 50.9245 60.7539 50.2647 60.7539 49.0721C60.7539 47.8794 59.9588 47.2196 59.0842 47.2196Z" fill="#012831"/>
<path d="M68.1381 47.2077L65.3654 50.9126H68.1719V52.2186H63.5586V50.9346L66.3093 47.2297H63.5704V45.922H68.1381V47.2077Z" fill="#012831"/>
<path d="M71.8642 45.8223C72.8759 45.8223 73.5695 46.2993 73.9434 46.8221V45.9238H75.5454V52.2187H73.9434V51.2984C73.5678 51.8431 72.8522 52.3219 71.8524 52.3219C70.2605 52.3219 68.9883 51.0142 68.9883 49.0484C68.99 47.0826 70.2622 45.8223 71.8642 45.8223ZM72.2736 47.2196C71.421 47.2196 70.614 47.8557 70.614 49.0501C70.614 50.2427 71.421 50.9245 72.2736 50.9245C73.1482 50.9245 73.9434 50.2647 73.9434 49.0721C73.9434 47.8794 73.1482 47.2196 72.2736 47.2196Z" fill="#012831"/>
<path d="M79.5673 45.8223C80.579 45.8223 81.2726 46.2993 81.6465 46.8221V45.9238H83.2486V52.2187H81.6465V51.2984C81.2709 51.8431 80.5553 52.3219 79.5555 52.3219C77.9636 52.3219 76.6914 51.0142 76.6914 49.0484C76.6931 47.0826 77.9653 45.8223 79.5673 45.8223ZM79.9767 47.2196C79.1241 47.2196 78.3172 47.8557 78.3172 49.0501C78.3172 50.2427 79.1241 50.9245 79.9767 50.9245C80.8514 50.9245 81.6465 50.2647 81.6465 49.0721C81.6482 47.8794 80.8514 47.2196 79.9767 47.2196Z" fill="#012831"/>
<path d="M86.3946 52.1966H84.8027V45.9017H86.3946V46.8795C86.7922 46.2316 87.452 45.812 88.3266 45.812V47.4817H87.9054C86.9614 47.4817 86.3946 47.8455 86.3946 49.0618V52.1966Z" fill="#012831"/>
<path d="M82.168 34.4285C82.168 34.4285 82.9157 34.8311 83.2794 35.8444M89.2529 35.4604C89.1074 35.2794 88.8909 35.1728 88.6574 35.1728H83.0697L83.7007 37.7544V37.7713L83.9206 38.6578C84.0001 38.9978 84.3046 39.2364 84.6531 39.2364H88.0349C88.3885 39.2364 88.6879 38.9978 88.7725 38.6578L89.395 36.1067C89.4475 35.8783 89.3984 35.6448 89.2529 35.4604ZM89.1125 36.0373L88.49 38.5935C88.4375 38.8016 88.2514 38.9471 88.0349 38.9471H84.6531C84.4366 38.9471 84.2522 38.8016 84.198 38.5935L83.9815 37.702L83.8969 37.3484H87.6187V37.0608H83.8276L83.4435 35.4621H88.6574C88.8029 35.4621 88.9349 35.5247 89.0245 35.6381C89.1125 35.7548 89.143 35.8969 89.1125 36.0373ZM84.4112 39.6187C83.9747 39.6187 83.6161 39.9756 83.6161 40.4138C83.6161 40.8553 83.973 41.2123 84.4112 41.2123C84.8527 41.2123 85.2097 40.8553 85.2097 40.4138C85.2097 39.9756 84.8527 39.6187 84.4112 39.6187ZM84.4112 40.9196C84.1337 40.9196 83.9037 40.6946 83.9037 40.4121C83.9037 40.1347 84.1337 39.9046 84.4112 39.9046C84.6937 39.9046 84.9187 40.1347 84.9187 40.4121C84.9187 40.6946 84.6937 40.9196 84.4112 40.9196ZM88.2785 39.6187C87.837 39.6187 87.48 39.9756 87.48 40.4138C87.48 40.8553 87.837 41.2123 88.2785 41.2123C88.72 41.2123 89.077 40.8553 89.077 40.4138C89.077 39.9756 88.72 39.6187 88.2785 39.6187ZM88.2785 40.9196C88.0011 40.9196 87.771 40.6946 87.771 40.4121C87.771 40.1347 88.0011 39.9046 88.2785 39.9046C88.561 39.9046 88.786 40.1347 88.786 40.4121C88.786 40.6946 88.561 40.9196 88.2785 40.9196Z" stroke="url(#paint0_linear_1127_4179)" stroke-width="0.5" stroke-miterlimit="10"/>
<defs>
<linearGradient id="paint0_linear_1127_4179" x1="82.0635" y1="37.8329" x2="89.6362" y2="37.8329" gradientUnits="userSpaceOnUse">
<stop stop-color="#27C0EC"/>
<stop offset="0.3883" stop-color="#06B5AB"/>
<stop offset="0.7263" stop-color="#19AB54"/>
<stop offset="1" stop-color="#C8D251"/>
</linearGradient>
</defs>
</svg>
