<svg width="207" height="26" viewBox="0 0 207 26" fill="none" xmlns="http://www.w3.org/2000/svg">
<circle cx="13" cy="13" r="12.75" stroke="white" stroke-width="0.5"/>
<circle cx="13" cy="13" r="3" fill="white"/>
<path d="M38.704 7.848C39.92 7.848 40.9707 8.07733 41.856 8.536C42.752 8.984 43.4347 9.62933 43.904 10.472C44.384 11.3147 44.624 12.3067 44.624 13.448C44.624 14.5893 44.384 15.5813 43.904 16.424C43.4347 17.256 42.752 17.896 41.856 18.344C40.9707 18.7813 39.92 19 38.704 19H35.232V7.848H38.704ZM38.704 17.8C40.144 17.8 41.2427 17.4213 42 16.664C42.7573 15.896 43.136 14.824 43.136 13.448C43.136 12.0613 42.752 10.9787 41.984 10.2C41.2267 9.42133 40.1333 9.032 38.704 9.032H36.688V17.8H38.704ZM47.2965 8.808C47.0192 8.808 46.7845 8.712 46.5925 8.52C46.4005 8.328 46.3045 8.09333 46.3045 7.816C46.3045 7.53867 46.4005 7.304 46.5925 7.112C46.7845 6.92 47.0192 6.824 47.2965 6.824C47.5632 6.824 47.7872 6.92 47.9685 7.112C48.1605 7.304 48.2565 7.53867 48.2565 7.816C48.2565 8.09333 48.1605 8.328 47.9685 8.52C47.7872 8.712 47.5632 8.808 47.2965 8.808ZM48.0005 10.232V19H46.5445V10.232H48.0005ZM53.586 19.144C52.914 19.144 52.3113 19.032 51.778 18.808C51.2447 18.5733 50.8233 18.2533 50.514 17.848C50.2047 17.432 50.034 16.9573 50.002 16.424H51.506C51.5487 16.8613 51.7513 17.2187 52.114 17.496C52.4873 17.7733 52.9727 17.912 53.57 17.912C54.1247 17.912 54.562 17.7893 54.882 17.544C55.202 17.2987 55.362 16.9893 55.362 16.616C55.362 16.232 55.1913 15.9493 54.85 15.768C54.5087 15.576 53.9807 15.3893 53.266 15.208C52.6153 15.0373 52.082 14.8667 51.666 14.696C51.2607 14.5147 50.9087 14.2533 50.61 13.912C50.322 13.56 50.178 13.1013 50.178 12.536C50.178 12.088 50.3113 11.6773 50.578 11.304C50.8447 10.9307 51.2233 10.6373 51.714 10.424C52.2047 10.2 52.7647 10.088 53.394 10.088C54.3647 10.088 55.1487 10.3333 55.746 10.824C56.3433 11.3147 56.6633 11.9867 56.706 12.84H55.25C55.218 12.3813 55.0313 12.0133 54.69 11.736C54.3593 11.4587 53.9113 11.32 53.346 11.32C52.8233 11.32 52.4073 11.432 52.098 11.656C51.7887 11.88 51.634 12.1733 51.634 12.536C51.634 12.824 51.7247 13.064 51.906 13.256C52.098 13.4373 52.3327 13.5867 52.61 13.704C52.898 13.8107 53.2927 13.9333 53.794 14.072C54.4233 14.2427 54.9353 14.4133 55.33 14.584C55.7247 14.744 56.0607 14.9893 56.338 15.32C56.626 15.6507 56.7753 16.0827 56.786 16.616C56.786 17.096 56.6527 17.528 56.386 17.912C56.1193 18.296 55.7407 18.6 55.25 18.824C54.77 19.0373 54.2153 19.144 53.586 19.144ZM58.2974 14.6C58.2974 13.6933 58.4787 12.904 58.8414 12.232C59.204 11.5493 59.7054 11.0213 60.3454 10.648C60.996 10.2747 61.7374 10.088 62.5694 10.088C63.6467 10.088 64.532 10.3493 65.2254 10.872C65.9294 11.3947 66.3934 12.12 66.6174 13.048H65.0494C64.9 12.5147 64.6067 12.0933 64.1694 11.784C63.7427 11.4747 63.2094 11.32 62.5694 11.32C61.7374 11.32 61.0654 11.608 60.5534 12.184C60.0414 12.7493 59.7854 13.5547 59.7854 14.6C59.7854 15.656 60.0414 16.472 60.5534 17.048C61.0654 17.624 61.7374 17.912 62.5694 17.912C63.2094 17.912 63.7427 17.7627 64.1694 17.464C64.596 17.1653 64.8894 16.7387 65.0494 16.184H66.6174C66.3827 17.08 65.9134 17.8 65.2094 18.344C64.5054 18.8773 63.6254 19.144 62.5694 19.144C61.7374 19.144 60.996 18.9573 60.3454 18.584C59.7054 18.2107 59.204 17.6827 58.8414 17C58.4787 16.3173 58.2974 15.5173 58.2974 14.6ZM72.3841 19.144C71.5628 19.144 70.8161 18.9573 70.1441 18.584C69.4828 18.2107 68.9601 17.6827 68.5761 17C68.2028 16.3067 68.0161 15.5067 68.0161 14.6C68.0161 13.704 68.2081 12.9147 68.5921 12.232C68.9868 11.5387 69.5201 11.0107 70.1921 10.648C70.8641 10.2747 71.6161 10.088 72.4481 10.088C73.2801 10.088 74.0321 10.2747 74.7041 10.648C75.3761 11.0107 75.9041 11.5333 76.2881 12.216C76.6828 12.8987 76.8801 13.6933 76.8801 14.6C76.8801 15.5067 76.6775 16.3067 76.2721 17C75.8775 17.6827 75.3388 18.2107 74.6561 18.584C73.9735 18.9573 73.2161 19.144 72.3841 19.144ZM72.3841 17.864C72.9068 17.864 73.3975 17.7413 73.8561 17.496C74.3148 17.2507 74.6828 16.8827 74.9601 16.392C75.2481 15.9013 75.3921 15.304 75.3921 14.6C75.3921 13.896 75.2535 13.2987 74.9761 12.808C74.6988 12.3173 74.3361 11.9547 73.8881 11.72C73.4401 11.4747 72.9548 11.352 72.4321 11.352C71.8988 11.352 71.4081 11.4747 70.9601 11.72C70.5228 11.9547 70.1708 12.3173 69.9041 12.808C69.6375 13.2987 69.5041 13.896 69.5041 14.6C69.5041 15.3147 69.6321 15.9173 69.8881 16.408C70.1548 16.8987 70.5068 17.2667 70.9441 17.512C71.3815 17.7467 71.8615 17.864 72.3841 17.864ZM82.0585 17.656L84.7785 10.232H86.3305L82.8905 19H81.1945L77.7545 10.232H79.3225L82.0585 17.656ZM95.7633 14.28C95.7633 14.5573 95.7473 14.8507 95.7153 15.16H88.7073C88.7606 16.024 89.0539 16.7013 89.5873 17.192C90.1313 17.672 90.7873 17.912 91.5553 17.912C92.1846 17.912 92.7073 17.768 93.1233 17.48C93.5499 17.1813 93.8486 16.7867 94.0193 16.296H95.5873C95.3526 17.1387 94.8833 17.8267 94.1793 18.36C93.4753 18.8827 92.6006 19.144 91.5553 19.144C90.7233 19.144 89.9766 18.9573 89.3153 18.584C88.6646 18.2107 88.1526 17.6827 87.7793 17C87.4059 16.3067 87.2193 15.5067 87.2193 14.6C87.2193 13.6933 87.4006 12.8987 87.7633 12.216C88.1259 11.5333 88.6326 11.0107 89.2833 10.648C89.9446 10.2747 90.7019 10.088 91.5553 10.088C92.3873 10.088 93.1233 10.2693 93.7633 10.632C94.4033 10.9947 94.8939 11.496 95.2353 12.136C95.5873 12.7653 95.7633 13.48 95.7633 14.28ZM94.2593 13.976C94.2593 13.4213 94.1366 12.9467 93.8913 12.552C93.6459 12.1467 93.3099 11.8427 92.8833 11.64C92.4673 11.4267 92.0033 11.32 91.4913 11.32C90.7553 11.32 90.1259 11.5547 89.6033 12.024C89.0913 12.4933 88.7979 13.144 88.7233 13.976H94.2593ZM99.1411 11.656C99.3971 11.1547 99.7598 10.7653 100.229 10.488C100.709 10.2107 101.29 10.072 101.973 10.072V11.576H101.589C99.9571 11.576 99.1411 12.4613 99.1411 14.232V19H97.6851V10.232H99.1411V11.656ZM111.024 19.144C110.352 19.144 109.749 19.032 109.216 18.808C108.682 18.5733 108.261 18.2533 107.952 17.848C107.642 17.432 107.472 16.9573 107.44 16.424H108.944C108.986 16.8613 109.189 17.2187 109.552 17.496C109.925 17.7733 110.41 17.912 111.008 17.912C111.562 17.912 112 17.7893 112.32 17.544C112.64 17.2987 112.8 16.9893 112.8 16.616C112.8 16.232 112.629 15.9493 112.288 15.768C111.946 15.576 111.418 15.3893 110.704 15.208C110.053 15.0373 109.52 14.8667 109.104 14.696C108.698 14.5147 108.346 14.2533 108.048 13.912C107.76 13.56 107.616 13.1013 107.616 12.536C107.616 12.088 107.749 11.6773 108.016 11.304C108.282 10.9307 108.661 10.6373 109.152 10.424C109.642 10.2 110.202 10.088 110.832 10.088C111.802 10.088 112.586 10.3333 113.184 10.824C113.781 11.3147 114.101 11.9867 114.144 12.84H112.688C112.656 12.3813 112.469 12.0133 112.128 11.736C111.797 11.4587 111.349 11.32 110.784 11.32C110.261 11.32 109.845 11.432 109.536 11.656C109.226 11.88 109.072 12.1733 109.072 12.536C109.072 12.824 109.162 13.064 109.344 13.256C109.536 13.4373 109.77 13.5867 110.048 13.704C110.336 13.8107 110.73 13.9333 111.232 14.072C111.861 14.2427 112.373 14.4133 112.768 14.584C113.162 14.744 113.498 14.9893 113.776 15.32C114.064 15.6507 114.213 16.0827 114.224 16.616C114.224 17.096 114.09 17.528 113.824 17.912C113.557 18.296 113.178 18.6 112.688 18.824C112.208 19.0373 111.653 19.144 111.024 19.144ZM124.279 14.28C124.279 14.5573 124.263 14.8507 124.231 15.16H117.223C117.276 16.024 117.57 16.7013 118.103 17.192C118.647 17.672 119.303 17.912 120.071 17.912C120.7 17.912 121.223 17.768 121.639 17.48C122.066 17.1813 122.364 16.7867 122.535 16.296H124.103C123.868 17.1387 123.399 17.8267 122.695 18.36C121.991 18.8827 121.116 19.144 120.071 19.144C119.239 19.144 118.492 18.9573 117.831 18.584C117.18 18.2107 116.668 17.6827 116.295 17C115.922 16.3067 115.735 15.5067 115.735 14.6C115.735 13.6933 115.916 12.8987 116.279 12.216C116.642 11.5333 117.148 11.0107 117.799 10.648C118.46 10.2747 119.218 10.088 120.071 10.088C120.903 10.088 121.639 10.2693 122.279 10.632C122.919 10.9947 123.41 11.496 123.751 12.136C124.103 12.7653 124.279 13.48 124.279 14.28ZM122.775 13.976C122.775 13.4213 122.652 12.9467 122.407 12.552C122.162 12.1467 121.826 11.8427 121.399 11.64C120.983 11.4267 120.519 11.32 120.007 11.32C119.271 11.32 118.642 11.5547 118.119 12.024C117.607 12.4933 117.314 13.144 117.239 13.976H122.775ZM127.657 11.656C127.913 11.1547 128.275 10.7653 128.745 10.488C129.225 10.2107 129.806 10.072 130.489 10.072V11.576H130.105C128.473 11.576 127.657 12.4613 127.657 14.232V19H126.201V10.232H127.657V11.656ZM140.17 14.28C140.17 14.5573 140.154 14.8507 140.122 15.16H133.114C133.167 16.024 133.46 16.7013 133.994 17.192C134.538 17.672 135.194 17.912 135.962 17.912C136.591 17.912 137.114 17.768 137.53 17.48C137.956 17.1813 138.255 16.7867 138.426 16.296H139.994C139.759 17.1387 139.29 17.8267 138.586 18.36C137.882 18.8827 137.007 19.144 135.962 19.144C135.13 19.144 134.383 18.9573 133.722 18.584C133.071 18.2107 132.559 17.6827 132.186 17C131.812 16.3067 131.626 15.5067 131.626 14.6C131.626 13.6933 131.807 12.8987 132.17 12.216C132.532 11.5333 133.039 11.0107 133.69 10.648C134.351 10.2747 135.108 10.088 135.962 10.088C136.794 10.088 137.53 10.2693 138.17 10.632C138.81 10.9947 139.3 11.496 139.642 12.136C139.994 12.7653 140.17 13.48 140.17 14.28ZM138.666 13.976C138.666 13.4213 138.543 12.9467 138.298 12.552C138.052 12.1467 137.716 11.8427 137.29 11.64C136.874 11.4267 136.41 11.32 135.898 11.32C135.162 11.32 134.532 11.5547 134.01 12.024C133.498 12.4933 133.204 13.144 133.13 13.976H138.666ZM146.363 10.072C147.43 10.072 148.294 10.3973 148.955 11.048C149.617 11.688 149.947 12.616 149.947 13.832V19H148.507V14.04C148.507 13.1653 148.289 12.4987 147.851 12.04C147.414 11.5707 146.817 11.336 146.059 11.336C145.291 11.336 144.678 11.576 144.219 12.056C143.771 12.536 143.547 13.2347 143.547 14.152V19H142.091V10.232H143.547V11.48C143.835 11.032 144.225 10.6853 144.715 10.44C145.217 10.1947 145.766 10.072 146.363 10.072ZM160.326 14.28C160.326 14.5573 160.31 14.8507 160.278 15.16H153.27C153.323 16.024 153.616 16.7013 154.15 17.192C154.694 17.672 155.35 17.912 156.118 17.912C156.747 17.912 157.27 17.768 157.686 17.48C158.112 17.1813 158.411 16.7867 158.582 16.296H160.15C159.915 17.1387 159.446 17.8267 158.742 18.36C158.038 18.8827 157.163 19.144 156.118 19.144C155.286 19.144 154.539 18.9573 153.878 18.584C153.227 18.2107 152.715 17.6827 152.342 17C151.968 16.3067 151.782 15.5067 151.782 14.6C151.782 13.6933 151.963 12.8987 152.326 12.216C152.688 11.5333 153.195 11.0107 153.846 10.648C154.507 10.2747 155.264 10.088 156.118 10.088C156.95 10.088 157.686 10.2693 158.326 10.632C158.966 10.9947 159.456 11.496 159.798 12.136C160.15 12.7653 160.326 13.48 160.326 14.28ZM158.822 13.976C158.822 13.4213 158.699 12.9467 158.454 12.552C158.208 12.1467 157.872 11.8427 157.446 11.64C157.03 11.4267 156.566 11.32 156.054 11.32C155.318 11.32 154.688 11.5547 154.166 12.024C153.654 12.4933 153.36 13.144 153.286 13.976H158.822ZM167.969 7.16V19H166.513V7.16H167.969ZM169.907 14.584C169.907 13.688 170.088 12.904 170.451 12.232C170.813 11.5493 171.309 11.0213 171.939 10.648C172.579 10.2747 173.288 10.088 174.067 10.088C174.835 10.088 175.501 10.2533 176.067 10.584C176.632 10.9147 177.053 11.3307 177.331 11.832V10.232H178.803V19H177.331V17.368C177.043 17.88 176.611 18.3067 176.035 18.648C175.469 18.9787 174.808 19.144 174.051 19.144C173.272 19.144 172.568 18.952 171.939 18.568C171.309 18.184 170.813 17.6453 170.451 16.952C170.088 16.2587 169.907 15.4693 169.907 14.584ZM177.331 14.6C177.331 13.9387 177.197 13.3627 176.931 12.872C176.664 12.3813 176.301 12.008 175.843 11.752C175.395 11.4853 174.899 11.352 174.355 11.352C173.811 11.352 173.315 11.48 172.867 11.736C172.419 11.992 172.061 12.3653 171.795 12.856C171.528 13.3467 171.395 13.9227 171.395 14.584C171.395 15.256 171.528 15.8427 171.795 16.344C172.061 16.8347 172.419 17.2133 172.867 17.48C173.315 17.736 173.811 17.864 174.355 17.864C174.899 17.864 175.395 17.736 175.843 17.48C176.301 17.2133 176.664 16.8347 176.931 16.344C177.197 15.8427 177.331 15.2613 177.331 14.6ZM186.159 19L182.719 15.128V19H181.263V7.16H182.719V14.12L186.095 10.232H188.127L183.999 14.6L188.143 19H186.159ZM197.498 14.28C197.498 14.5573 197.482 14.8507 197.45 15.16H190.442C190.495 16.024 190.788 16.7013 191.322 17.192C191.866 17.672 192.522 17.912 193.29 17.912C193.919 17.912 194.442 17.768 194.858 17.48C195.284 17.1813 195.583 16.7867 195.754 16.296H197.322C197.087 17.1387 196.618 17.8267 195.914 18.36C195.21 18.8827 194.335 19.144 193.29 19.144C192.458 19.144 191.711 18.9573 191.05 18.584C190.399 18.2107 189.887 17.6827 189.514 17C189.14 16.3067 188.954 15.5067 188.954 14.6C188.954 13.6933 189.135 12.8987 189.498 12.216C189.86 11.5333 190.367 11.0107 191.018 10.648C191.679 10.2747 192.436 10.088 193.29 10.088C194.122 10.088 194.858 10.2693 195.498 10.632C196.138 10.9947 196.628 11.496 196.97 12.136C197.322 12.7653 197.498 13.48 197.498 14.28ZM195.994 13.976C195.994 13.4213 195.871 12.9467 195.626 12.552C195.38 12.1467 195.044 11.8427 194.618 11.64C194.202 11.4267 193.738 11.32 193.226 11.32C192.49 11.32 191.86 11.5547 191.338 12.024C190.826 12.4933 190.532 13.144 190.458 13.976H195.994ZM202.524 19.144C201.852 19.144 201.249 19.032 200.716 18.808C200.182 18.5733 199.761 18.2533 199.452 17.848C199.142 17.432 198.972 16.9573 198.94 16.424H200.444C200.486 16.8613 200.689 17.2187 201.052 17.496C201.425 17.7733 201.91 17.912 202.508 17.912C203.062 17.912 203.5 17.7893 203.82 17.544C204.14 17.2987 204.3 16.9893 204.3 16.616C204.3 16.232 204.129 15.9493 203.788 15.768C203.446 15.576 202.918 15.3893 202.204 15.208C201.553 15.0373 201.02 14.8667 200.604 14.696C200.198 14.5147 199.846 14.2533 199.548 13.912C199.26 13.56 199.116 13.1013 199.116 12.536C199.116 12.088 199.249 11.6773 199.516 11.304C199.782 10.9307 200.161 10.6373 200.652 10.424C201.142 10.2 201.702 10.088 202.332 10.088C203.302 10.088 204.086 10.3333 204.684 10.824C205.281 11.3147 205.601 11.9867 205.644 12.84H204.188C204.156 12.3813 203.969 12.0133 203.628 11.736C203.297 11.4587 202.849 11.32 202.284 11.32C201.761 11.32 201.345 11.432 201.036 11.656C200.726 11.88 200.572 12.1733 200.572 12.536C200.572 12.824 200.662 13.064 200.844 13.256C201.036 13.4373 201.27 13.5867 201.548 13.704C201.836 13.8107 202.23 13.9333 202.732 14.072C203.361 14.2427 203.873 14.4133 204.268 14.584C204.662 14.744 204.998 14.9893 205.276 15.32C205.564 15.6507 205.713 16.0827 205.724 16.616C205.724 17.096 205.59 17.528 205.324 17.912C205.057 18.296 204.678 18.6 204.188 18.824C203.708 19.0373 203.153 19.144 202.524 19.144Z" fill="white"/>
</svg>
