<svg width="90" height="68" viewBox="0 0 90 68" fill="none" xmlns="http://www.w3.org/2000/svg">
<path d="M7.84895 42.2814H37.3003L38.657 39.9316H6.49219L7.84895 42.2814Z" fill="white"/>
<path d="M17.3197 58.6916H27.8253L29.1804 56.3418H15.9629L17.3197 58.6916Z" fill="white"/>
<path d="M15.9626 56.3412H29.1801L37.2987 42.2812H7.8457L15.9626 56.3412Z" fill="#2C9C48"/>
<path d="M22.5731 67.7895L27.826 58.6914H17.3203L22.5731 67.7895Z" fill="#994523"/>
<path d="M22.5733 0C16.0906 0 10.2507 2.73721 6.13477 7.11203H39.0152C34.8975 2.73721 29.056 0 22.5733 0Z" fill="#F7EB24"/>
<path d="M39.0138 7.1123H6.13339C5.43978 7.8499 4.79523 8.63486 4.20312 9.46212H40.9441C40.3537 8.63486 39.7074 7.85159 39.0138 7.1123Z" fill="white"/>
<path d="M0.242188 25.8718C0.524706 27.8004 1.05084 29.734 1.83241 31.5188C2.58693 33.2427 3.54444 34.8667 4.49858 36.484C4.94012 37.2318 5.36813 37.9863 5.80121 38.7374C5.8655 38.8474 6.36794 39.9318 6.49144 39.9318H38.6563C38.9557 39.9301 40.2753 37.1523 40.4986 36.7632C41.1939 35.5536 41.8723 34.3355 42.4965 33.087C43.6367 30.8066 44.5384 28.4026 44.9089 25.8701H0.242188V25.8718Z" fill="#F6D7B0"/>
<path d="M45.1147 23.5215H0.0351562C0.0672991 24.3149 0.128199 25.0999 0.241545 25.8713H44.9066C45.0216 25.1016 45.0825 24.3149 45.1147 23.5215Z" fill="white"/>
<path d="M45.1506 22.5711C45.1506 22.8909 45.1286 23.2055 45.115 23.5219H0.0355274C0.0219936 23.2055 0 22.8909 0 22.5711C0 17.682 1.55978 13.1583 4.20395 9.46191H40.9449C41.7451 10.5801 42.4455 11.7728 43.0325 13.0281C43.31 13.6185 43.562 14.2241 43.7853 14.8416C44.0645 15.5995 44.3013 16.376 44.4959 17.1677C44.6363 17.7328 44.7547 18.3046 44.8477 18.8848C45.0474 20.0843 45.1506 21.3159 45.1506 22.5711Z" fill="#27BFEA"/>
<path d="M48.5318 15.0412C47.1243 15.6046 45.7794 16.3388 44.4953 17.1677C44.6357 17.7328 44.7542 18.3046 44.8472 18.8849C44.7305 18.9779 44.6138 19.0726 44.4987 19.1674C42.8307 20.5275 41.2371 21.979 39.7382 23.5219C38.9972 24.2832 38.2799 25.0664 37.5863 25.8717C37.4408 26.0409 37.297 26.2117 37.1532 26.3843C35.003 28.9574 33.4382 32.3781 30.7788 34.4505C28.2547 36.4179 25.1859 37.5311 21.975 37.5311C15.0085 37.5311 9.22446 32.4982 8.05886 25.8717C7.92522 25.107 7.85247 24.3238 7.8474 23.5219C7.8457 23.4847 7.8457 23.4458 7.8457 23.4085C7.8457 18.198 10.8096 13.3055 15.4246 10.8864C19.3715 8.81738 23.4874 9.52451 27.6203 10.5226C31.9444 11.5681 36.3547 12.3886 40.7837 12.8302C41.528 12.9046 42.2775 12.9706 43.032 13.0281C43.3094 13.6185 43.5615 14.2241 43.7848 14.8416C45.3243 14.8585 46.8654 14.8044 48.388 14.6538L48.3965 14.664C48.1664 14.8264 48.07 14.9431 48.1292 15.0243C48.1173 15.0852 48.322 15.0599 48.5318 15.0294V15.0412Z" fill="white"/>
<path d="M48.5326 15.0295V15.0413C47.1251 15.6047 45.7802 16.3389 44.4962 17.1678C43.2307 17.9866 42.0262 18.8985 40.8792 19.834C39.4667 20.9861 38.1962 22.2227 37.0035 23.522C36.3048 24.285 35.6332 25.0699 34.9785 25.8718C33.9432 27.1355 32.9484 28.4432 31.9435 29.778C29.8915 32.5051 27.205 34.5335 23.9315 35.1374C23.8875 35.1459 23.8418 35.156 23.7962 35.1628C23.1787 35.2677 22.5392 35.3235 21.8811 35.3235C19.0136 35.3235 16.383 34.3135 14.3292 32.6286C14.3191 32.6201 14.3089 32.6117 14.2988 32.6032C12.2535 30.9165 10.7817 28.5616 10.2183 25.8718C10.0576 25.1122 9.97135 24.3272 9.96458 23.522C9.96289 23.4848 9.96289 23.4492 9.96289 23.412C9.96289 19.0169 12.4633 14.8891 16.3559 12.8489C18.0189 11.9759 19.7174 11.69 21.4362 11.7256C21.4447 11.7256 21.4531 11.7239 21.4633 11.7256C22.4428 11.7492 23.4291 11.8744 24.4187 12.0588C24.4221 12.0588 24.4272 12.0588 24.4306 12.0605C25.1665 12.1959 25.9041 12.3633 26.6417 12.5427C30.289 13.4241 34.0091 14.116 37.7462 14.4881C39.7272 14.6861 41.7556 14.8231 43.7856 14.8417C45.3251 14.8586 46.8663 14.8045 48.3888 14.6539L48.3973 14.6641C48.1672 14.8265 48.0708 14.9432 48.13 15.0244C48.1182 15.0853 48.3229 15.06 48.5326 15.0295Z" fill="#002831"/>
<path fill-rule="evenodd" clip-rule="evenodd" d="M59.254 11.5021C59.0374 11.5952 58.8277 11.6256 58.6043 11.7204L55.676 20.8845L54.8724 21.2076L55.4696 12.9519C54.4461 13.3038 53.3735 13.6743 52.3771 14.0059C51.2673 14.373 50.2523 14.691 49.5028 14.8704L49.3743 15.6384L48.9243 18.3418L48.7077 18.4348L48.5893 16.1392L48.5318 15.0412V15.0294C48.322 15.0598 48.1173 15.0852 48.1292 15.0243C48.0699 14.9431 48.1664 14.8264 48.3965 14.664L48.388 14.6538L47.0938 13.2378L46.0957 12.1467L46.3173 12.0536L47.9583 13.2514L49.1679 14.1362C49.6263 13.8638 50.2032 13.5457 50.8478 13.2057C52.0252 12.5865 53.431 11.8946 54.7709 11.2721L48.4895 5.84668L49.2305 5.51172L57.8092 9.81717C58.0308 9.72413 58.2525 9.63108 58.4639 9.60063C61.2418 8.43503 63.7134 7.88521 63.9502 8.39781C64.1972 8.91886 62.0386 10.3382 59.254 11.5021Z" fill="#002831"/>
<path d="M32.2386 19.195C31.9392 19.2068 31.6398 19.217 31.3403 19.2204C30.8853 19.2237 30.3963 19.217 30.0123 18.9649C29.9244 18.9091 29.8347 18.8059 29.8753 18.7095C29.8939 18.6689 29.9277 18.6435 29.9633 18.613C30.4556 18.2205 30.8582 17.7181 31.1356 17.1514C31.5687 17.7891 31.9426 18.4692 32.2386 19.195Z" fill="#002831" stroke="#D8E3E5" stroke-miterlimit="10"/>
<path d="M31.2181 19.7452C30.7123 19.7452 30.1828 19.7046 29.7243 19.4034C29.3961 19.1987 29.2557 18.8266 29.391 18.5051C29.4655 18.3393 29.5754 18.2531 29.633 18.2057C30.066 17.8606 30.4213 17.4174 30.6649 16.9217C30.7478 16.7542 30.9119 16.6425 31.098 16.629C31.2824 16.6172 31.4634 16.7034 31.5683 16.8574C32.0352 17.5442 32.4243 18.2632 32.7221 18.9957C32.7863 19.1548 32.7694 19.3341 32.6764 19.4779C32.5833 19.6217 32.426 19.7113 32.2551 19.7164C31.9371 19.7283 31.641 19.7384 31.3433 19.7435L31.2181 19.7452ZM30.6903 18.6642C30.8442 18.6895 31.0202 18.6963 31.2181 18.6963H31.3348C31.3687 18.6963 31.4025 18.6946 31.4363 18.6946C31.3433 18.5102 31.2452 18.3258 31.1403 18.1431C31.0033 18.3292 30.8527 18.5018 30.6903 18.6642Z" fill="#002831" stroke="#D8E3E5" stroke-miterlimit="10"/>
<path d="M29.0506 22.5399C29.0878 22.8055 29.328 23.0068 29.5835 23.0982C29.8355 23.1861 30.1096 23.1912 30.3786 23.2284C30.4632 23.2403 30.5562 23.2572 30.6306 23.3096C30.7152 23.3688 30.7677 23.4687 30.8083 23.5685C31.1111 24.2824 31.1703 25.0961 30.9707 25.8472C30.8962 26.1281 30.7863 26.414 30.8117 26.7049C30.859 27.1786 31.2549 27.5373 31.4511 27.9704C31.6321 28.3696 31.6406 28.7908 31.5848 29.2239L31.5814 29.2273C30.7338 30.6923 29.5767 31.9459 28.1929 32.9051C28.1996 32.1574 28.1675 31.4063 27.9492 30.6923C27.6786 29.8042 27.0729 28.9685 26.1949 28.6656C25.6333 28.4728 24.9701 28.4914 24.5235 28.0955C24.29 27.8891 24.1395 27.5846 23.8654 27.4408C23.6759 27.341 23.4577 27.3292 23.2445 27.3072C22.4934 27.2328 21.6797 26.9553 21.3177 26.2938C20.981 25.6865 21.1147 24.932 21.3295 24.2739C21.5477 23.6158 21.8404 22.9527 21.7998 22.2608C21.7812 21.9681 21.7118 21.6433 21.8878 21.4098C21.9622 21.3066 22.0722 21.239 22.1804 21.1764C22.6761 20.8803 23.2276 20.9463 23.7233 20.6502C24.2156 20.8871 24.8398 20.7585 25.1224 21.2271C25.2103 21.3709 25.2695 21.5384 25.3744 21.6754C25.5893 21.9596 25.9513 22.0899 26.2914 22.1965C26.4064 22.2337 26.5282 22.2675 26.6466 22.2489C26.9055 22.2016 27.0492 21.9055 27.0543 21.6416C27.0696 20.8532 26.2694 20.2696 25.4929 20.1241C24.7164 19.9803 23.9128 20.1241 23.1295 20.0277C22.8182 19.9905 22.5002 19.9126 22.26 19.713C22.0163 19.5168 21.8641 19.1801 21.9605 18.8841C22.1382 18.3326 22.9231 18.292 23.3291 17.8809C23.4882 17.7185 23.5812 17.507 23.6912 17.3108C24.0718 16.6256 24.6673 16.0978 25.256 15.5801C25.4556 15.4025 25.6637 15.2215 25.9073 15.1132C26.1695 14.9948 26.4656 14.966 26.7211 14.8358C27.1389 14.6243 27.3724 14.1963 27.528 13.7412H27.5314C28.971 14.5989 30.2026 15.7611 31.1415 17.145V17.1484C30.8641 17.7151 30.4615 18.2175 29.9692 18.61C29.932 18.6388 29.8981 18.6658 29.8812 18.7064C29.8406 18.8029 29.9286 18.9061 30.0182 18.9619C30.4023 19.214 30.8912 19.2207 31.3462 19.2173C31.6457 19.214 31.9451 19.2021 32.2445 19.192C32.5508 19.9245 32.7808 20.6976 32.9246 21.5012C32.7402 21.579 32.5541 21.6602 32.3664 21.7262C31.8961 21.892 31.3902 21.9664 30.8895 21.941C30.5494 21.9224 30.2094 21.8564 29.8727 21.9004C29.5276 21.9512 29.0032 22.2032 29.0506 22.5399Z" fill="#00B58A" stroke="#D8E3E5" stroke-miterlimit="10"/>
<path d="M28.1921 33.4298C28.1076 33.4298 28.0247 33.4095 27.9468 33.3689C27.7743 33.2776 27.666 33.0966 27.6677 32.9003C27.6745 32.2626 27.6525 31.5199 27.4461 30.8466C27.1923 30.0109 26.6594 29.3815 26.0217 29.1616C25.866 29.1092 25.6884 29.0719 25.5006 29.033C25.0675 28.9451 24.5769 28.8436 24.1743 28.4883C24.0525 28.38 23.9561 28.2633 23.8698 28.1584C23.7784 28.0468 23.6921 27.9436 23.6177 27.903C23.5399 27.8624 23.4046 27.8488 23.2608 27.8353L23.1863 27.8285C22.0765 27.7186 21.2459 27.2635 20.8534 26.5445C20.5066 25.9186 20.4965 25.1218 20.8264 24.1101C20.867 23.99 20.9076 23.8716 20.9499 23.7532C21.1292 23.2406 21.3 22.7567 21.2713 22.2898C21.2679 22.2475 21.2645 22.2018 21.2594 22.1562C21.2324 21.8567 21.1952 21.4473 21.4658 21.0904C21.5978 20.906 21.7856 20.796 21.9091 20.7233C22.1374 20.5862 22.3692 20.5118 22.5858 20.4577C22.3624 20.3951 22.1256 20.2919 21.9158 20.1159C21.4844 19.7691 21.295 19.2075 21.4523 18.7219C21.6282 18.1789 22.1002 17.959 22.4792 17.783C22.6687 17.6951 22.8463 17.6122 22.9461 17.5124C23.0155 17.4413 23.0797 17.3229 23.1474 17.196C23.1728 17.1486 23.1982 17.0996 23.2252 17.0539C23.6532 16.2842 24.3164 15.7022 24.9 15.1879C25.103 15.0069 25.3602 14.7785 25.6867 14.6347C25.8423 14.5654 26.0014 14.5214 26.1418 14.4825C26.267 14.4486 26.3854 14.4148 26.475 14.3708C26.7017 14.2558 26.876 14.0037 27.0232 13.574C27.0959 13.3625 27.2955 13.2188 27.5188 13.2188C27.6136 13.2188 27.71 13.2441 27.7912 13.2932C29.285 14.1847 30.591 15.4146 31.5671 16.8526C31.6264 16.9389 31.6585 17.0421 31.6585 17.1469C31.6585 17.2265 31.6399 17.3094 31.6044 17.3804C31.3726 17.8541 31.0613 18.2889 30.6891 18.6627C30.8431 18.6881 31.019 18.6949 31.217 18.6949H31.3337C31.6196 18.6915 31.9089 18.6813 32.1982 18.6695C32.4181 18.6627 32.6363 18.7879 32.7209 18.9892C33.044 19.7607 33.2843 20.5744 33.4348 21.4084C33.4788 21.6503 33.3485 21.8889 33.1218 21.9836L33.017 22.0276C32.8579 22.0953 32.6972 22.1629 32.5348 22.2204C31.9985 22.4099 31.4301 22.4945 30.8566 22.464C30.745 22.4573 30.635 22.4471 30.5233 22.437C30.3271 22.4184 30.1292 22.393 29.9346 22.4201C29.8264 22.4353 29.7062 22.4844 29.6267 22.5317C29.6589 22.5571 29.7029 22.5825 29.7604 22.6045C29.8788 22.6468 30.0378 22.662 30.2053 22.6806C30.2865 22.689 30.3677 22.6975 30.4489 22.7077C30.5826 22.7246 30.7602 22.7601 30.9294 22.8785C31.1324 23.0189 31.2339 23.2253 31.2914 23.3691C31.6382 24.1862 31.7059 25.1167 31.4758 25.9812C31.4606 26.0421 31.442 26.103 31.4233 26.1656C31.3692 26.35 31.3202 26.5242 31.332 26.6578C31.3489 26.8203 31.4724 27.0047 31.6145 27.2195C31.7194 27.3768 31.8378 27.5545 31.9275 27.7541C32.188 28.3276 32.1525 28.9062 32.1034 29.2902C32.0933 29.3731 32.0628 29.4509 32.0171 29.5186C31.1408 31.0242 29.9211 32.3438 28.4899 33.3351C28.4002 33.3977 28.297 33.4298 28.1921 33.4298ZM23.748 21.224C23.5077 21.3272 23.2726 21.3797 23.0594 21.427C22.8226 21.4795 22.6196 21.5235 22.4437 21.6283C22.3997 21.6537 22.3252 21.6977 22.3066 21.718C22.2762 21.7738 22.2931 21.9548 22.3032 22.0631C22.3083 22.1189 22.3134 22.1748 22.3168 22.2289C22.3574 22.9073 22.1442 23.5146 21.9378 24.1016C21.8989 24.215 21.8583 24.3266 21.8211 24.4383C21.5876 25.1539 21.5707 25.6783 21.7703 26.0387C22.0816 26.6088 22.9376 26.7509 23.2912 26.7847L23.3623 26.7915C23.5788 26.8118 23.8478 26.8389 24.1066 26.9759C24.3655 27.1129 24.5397 27.3227 24.6784 27.4902C24.7461 27.5714 24.8087 27.6475 24.8696 27.7016C25.0608 27.8708 25.3619 27.9317 25.7104 28.0028C25.9235 28.0468 26.1418 28.0907 26.3634 28.1669C27.3192 28.4968 28.0974 29.3832 28.4476 30.537C28.5829 30.9785 28.6523 31.4302 28.6861 31.865C29.6335 31.0699 30.4489 30.1107 31.0765 29.0483C31.1121 28.6862 31.0799 28.4156 30.9733 28.1821C30.9175 28.0603 30.8329 27.9317 30.7433 27.7964C30.5504 27.5071 30.3339 27.1806 30.2899 26.7526C30.2594 26.4159 30.344 26.125 30.4185 25.8695C30.4337 25.8154 30.4489 25.7612 30.4641 25.7088C30.635 25.0676 30.5859 24.3791 30.3254 23.7684C30.322 23.7582 30.3187 23.7498 30.3153 23.743C30.3136 23.743 30.3119 23.743 30.3119 23.743C30.2391 23.7329 30.1698 23.7261 30.1004 23.7193C29.8889 23.6973 29.6504 23.6736 29.4102 23.5891C28.928 23.4148 28.5931 23.0392 28.5322 22.6095C28.5 22.3845 28.5609 22.1612 28.7081 21.965C28.9585 21.6334 29.4339 21.4321 29.7959 21.3813C30.092 21.3424 30.3677 21.3695 30.6282 21.3932C30.7247 21.4033 30.8194 21.4118 30.9158 21.4169C31.3337 21.4372 31.7854 21.3746 32.188 21.2308C32.2337 21.2139 32.2794 21.1969 32.3234 21.18C32.2134 20.6844 32.0696 20.1971 31.8903 19.7268C31.7059 19.7336 31.5265 19.737 31.3472 19.7404H31.2203C30.7145 19.7404 30.185 19.6998 29.7265 19.3986C29.3983 19.1939 29.2579 18.8218 29.3933 18.5003C29.4677 18.3345 29.576 18.2483 29.6352 18.2009C29.9905 17.9184 30.2916 17.5699 30.5233 17.1808C29.7688 16.1387 28.8232 15.2251 27.754 14.5045C27.5425 14.875 27.2769 15.1372 26.9504 15.303C26.7694 15.3943 26.585 15.4451 26.4243 15.4907C26.3109 15.5229 26.2027 15.5516 26.1164 15.5906C25.9354 15.6701 25.7561 15.8291 25.5987 15.9712C25.0506 16.4533 24.4856 16.9507 24.1438 17.5665L24.0762 17.6917C23.9814 17.8676 23.8749 18.0689 23.6989 18.2483C23.4638 18.4851 23.1779 18.6171 22.9258 18.7355C22.7109 18.8353 22.4893 18.9385 22.4538 19.0468C22.4352 19.106 22.4859 19.2295 22.5824 19.3073C22.7093 19.4139 22.8987 19.4765 23.1863 19.5103C23.369 19.5323 23.567 19.5424 23.8275 19.5424C23.9493 19.5424 24.0711 19.5407 24.1929 19.5391C24.3198 19.5374 24.4483 19.5357 24.5752 19.5357C24.851 19.5357 25.2147 19.5441 25.5852 19.6135C26.5884 19.7996 27.595 20.5609 27.5747 21.6554C27.5679 22.1308 27.2786 22.6671 26.7406 22.7669C26.6764 22.777 26.6256 22.7804 26.5749 22.7804C26.4074 22.7804 26.2619 22.7415 26.1282 22.6975C25.7222 22.5689 25.2587 22.3981 24.9525 21.9921C24.8628 21.8736 24.8019 21.7535 24.7495 21.6469C24.7241 21.5979 24.7004 21.5488 24.6734 21.5031C24.6192 21.4135 24.489 21.3813 24.2031 21.3272C24.0593 21.3018 23.9053 21.2748 23.748 21.224ZM25.2655 20.6218C25.3771 20.708 25.4803 20.818 25.5666 20.9601C25.6072 21.0261 25.6461 21.1022 25.685 21.1783C25.7205 21.2494 25.7544 21.3171 25.7865 21.361C25.9066 21.5201 26.1773 21.6148 26.4446 21.6994C26.4717 21.7078 26.4936 21.7146 26.5106 21.7197C26.519 21.6977 26.5241 21.6689 26.5258 21.6368C26.5342 21.153 25.9455 20.7453 25.3923 20.6421C25.35 20.6353 25.3077 20.6285 25.2655 20.6218Z" fill="#00B58A" stroke="#D8E3E5" stroke-miterlimit="10"/>
<path d="M18.459 16.7055C18.1477 16.8459 17.7484 16.8527 17.5488 17.1268C17.3373 17.4194 17.4828 17.8221 17.5962 18.1655C17.7078 18.5089 17.7264 18.9792 17.3999 19.1382C17.1411 19.2634 16.8197 19.0976 16.5524 19.2008C16.3494 19.2753 16.231 19.4817 16.0855 19.6441C15.5001 20.3055 14.3616 20.38 13.9623 21.1683C13.7847 21.5202 13.8033 21.9296 13.7695 22.3221C13.7289 22.789 13.6138 23.2474 13.4261 23.6721C13.3922 23.7533 13.3516 23.8345 13.2823 23.8869C13.13 24.002 12.9118 23.9343 12.7528 23.8311C12.3197 23.5384 11.9492 22.9615 11.44 23.08C10.9561 23.1916 10.8546 23.8785 11.0627 24.3335C11.2742 24.7886 11.9289 25.1777 12.2537 25.5583C12.8306 26.2384 12.2537 27.4412 11.2471 28.0486C10.6516 26.6647 10.3184 25.1405 10.3184 23.5384C10.3184 18.8591 13.1368 14.8412 17.1699 13.0869C16.9922 13.5826 17.2257 14.1561 17.6029 14.5266C17.992 14.9038 18.5063 15.1119 19.0054 15.3149C19.2219 15.8258 18.9614 16.4839 18.459 16.7055Z" fill="#00B58A" stroke="#D8E3E5" stroke-miterlimit="10"/>
<path d="M11.2481 28.5763C11.194 28.5763 11.1398 28.5678 11.0874 28.5509C10.9436 28.5052 10.8269 28.3987 10.766 28.2599C10.1214 26.7627 9.79492 25.1759 9.79492 23.5434C9.79492 18.7964 12.6083 14.5045 16.9611 12.6114C17.1523 12.5285 17.3756 12.5675 17.5278 12.7096C17.6801 12.8517 17.7342 13.0716 17.6632 13.2678C17.5718 13.525 17.697 13.8904 17.9694 14.156C18.2789 14.4571 18.7205 14.6364 19.1857 14.8259C19.3143 14.8783 19.4327 14.9849 19.4868 15.1135C19.8117 15.8815 19.4293 16.8492 18.668 17.1842C18.5344 17.2451 18.3974 17.284 18.2756 17.3178C18.1724 17.3466 17.9981 17.3973 17.9711 17.4346C17.9254 17.4971 18.0404 17.8406 18.0827 17.9691C18.0827 17.9708 18.0945 18.003 18.0945 18.0047C18.328 18.727 18.1453 19.3564 17.6293 19.6084C17.4263 19.7065 17.1793 19.7218 16.9154 19.6981C16.841 19.6913 16.7378 19.6913 16.7361 19.6913C16.709 19.7082 16.6413 19.7911 16.5974 19.847C16.5585 19.896 16.5179 19.9451 16.4773 19.9924C16.1491 20.3646 15.7075 20.5778 15.3184 20.7656C14.9175 20.9584 14.5707 21.1259 14.4286 21.4067C14.3372 21.5861 14.3237 21.8381 14.3085 22.1054C14.3034 22.1934 14.2983 22.2814 14.2915 22.3693C14.2459 22.9022 14.1156 23.4131 13.9041 23.8868C13.8551 24.0069 13.7688 24.1795 13.5929 24.3097C13.4541 24.4146 13.2782 24.4721 13.0921 24.4721C12.8299 24.4721 12.6083 24.3639 12.4679 24.2708C12.3021 24.1592 12.165 24.034 12.0314 23.9139C11.8808 23.7768 11.6727 23.5891 11.5763 23.5891C11.4985 23.6246 11.4376 23.8953 11.5391 24.1186C11.6203 24.2928 11.8859 24.5195 12.121 24.7208C12.3071 24.8799 12.5 25.044 12.6523 25.2199C12.9449 25.5667 13.0617 26.0252 12.9821 26.5141C12.8586 27.2686 12.297 28.0282 11.5188 28.4985C11.4359 28.5509 11.3429 28.5763 11.2481 28.5763ZM10.9487 25.0676C11.0502 25.7951 11.2261 26.509 11.4748 27.2026C11.7269 26.937 11.9011 26.6308 11.9468 26.3466C11.9773 26.1605 11.9451 26.0099 11.8538 25.9C11.7573 25.7883 11.6051 25.6581 11.4427 25.5193C11.2803 25.3806 11.1043 25.2317 10.9487 25.0676ZM11.5763 22.5436C12.0771 22.5436 12.4425 22.8735 12.7351 23.1391C12.8248 23.2203 12.9111 23.2981 12.9906 23.359C13.131 23.0122 13.2156 22.6518 13.2477 22.278C13.2545 22.2018 13.2579 22.1223 13.263 22.0445C13.2833 21.6994 13.3053 21.3069 13.4947 20.933C13.7976 20.3359 14.3643 20.0635 14.865 19.8216C15.1932 19.6626 15.5045 19.5137 15.694 19.2988C15.7227 19.265 15.7515 19.2312 15.7786 19.1956C15.9054 19.0349 16.0814 18.815 16.3741 18.7084C16.5449 18.6424 16.775 18.634 17.0085 18.6543C17.0524 18.6577 17.0981 18.6627 17.1404 18.6627C17.1489 18.5985 17.1455 18.4733 17.0964 18.3244C16.9577 17.9082 16.7598 17.3195 17.1218 16.8188C17.3637 16.4872 17.7257 16.384 17.988 16.3096C18.0827 16.2825 18.1741 16.2571 18.24 16.2267C18.4295 16.1438 18.5547 15.912 18.5547 15.6988C18.0979 15.5077 17.6226 15.2793 17.2351 14.9037C16.9425 14.6161 16.7429 14.2727 16.6464 13.9191C13.3103 15.6735 11.1195 19.0366 10.8641 22.8007C10.9944 22.6891 11.1483 22.6096 11.3192 22.5706C11.4054 22.5537 11.4917 22.5436 11.5763 22.5436Z" fill="#00B58A" stroke="#D8E3E5" stroke-miterlimit="10"/>
<path d="M28.1912 32.9053C26.3523 34.1809 24.1175 34.9286 21.7102 34.9286C19.9018 34.9286 18.1914 34.5074 16.6722 33.7563C16.9345 33.379 17.2018 33.0017 17.464 32.6245C17.7008 32.2878 17.941 31.936 18.0121 31.5299C18.0933 31.0461 17.9191 30.5386 18.0273 30.0581C18.1424 29.5472 18.5704 29.0668 18.4232 28.5643C18.3048 28.1532 17.8615 27.9502 17.5097 27.71C17.0664 27.4038 16.7213 26.9707 16.2747 26.6662C15.8264 26.3634 15.1987 26.2145 14.7572 26.5292C14.4831 26.722 14.3427 27.0502 14.1127 27.2989C13.9689 27.4512 13.7878 27.573 13.683 27.7574C13.5239 28.0467 13.595 28.4053 13.5121 28.7267C13.3683 29.3036 12.7948 29.6335 12.2534 29.8923C11.8644 29.3155 11.5277 28.7014 11.2469 28.0534C12.2534 27.4461 12.8303 26.245 12.2534 25.5632C11.9286 25.1826 11.2722 24.7935 11.0625 24.3384C10.8561 23.8833 10.9559 23.1948 11.4397 23.0848C11.9506 22.9664 12.3194 23.5433 12.7525 23.8359C12.9115 23.9391 13.1298 24.0068 13.282 23.8918C13.3531 23.8393 13.3937 23.7581 13.4258 23.6769C13.6153 23.2523 13.7286 22.7922 13.7692 22.3269C13.8031 21.9344 13.7845 21.5234 13.9621 21.1732C14.3613 20.3848 15.5016 20.3104 16.0852 19.6489C16.229 19.4865 16.3474 19.2784 16.5521 19.2057C16.8177 19.1025 17.1409 19.2683 17.3997 19.1431C17.7245 18.9841 17.7076 18.5138 17.5959 18.1704C17.4809 17.8269 17.3371 17.4226 17.5486 17.1316C17.7482 16.8576 18.1474 16.8508 18.4587 16.7104C18.9612 16.4888 19.22 15.8307 19.0068 15.3232C18.5078 15.1202 17.9935 14.9121 17.6044 14.5348C17.2271 14.1643 16.9937 13.5908 17.1713 13.0952H17.1747C18.5653 12.4929 20.098 12.1562 21.7102 12.1562C23.8333 12.1562 25.8211 12.7365 27.523 13.7515C27.3674 14.2066 27.1339 14.6363 26.716 14.8461C26.4606 14.9764 26.1645 15.0051 25.9023 15.1235C25.6587 15.2301 25.4506 15.4128 25.251 15.5905C24.6623 16.1081 24.0668 16.6376 23.6862 17.3211C23.5745 17.5173 23.4831 17.7288 23.3241 17.8912C22.9164 18.3023 22.1331 18.3429 21.9555 18.8944C21.8591 19.1905 22.0113 19.5271 22.255 19.7234C22.4952 19.923 22.8132 20.0008 23.1245 20.038C23.9095 20.1344 24.7113 19.9906 25.4878 20.1344C26.2644 20.2782 27.0645 20.8636 27.0493 21.6519C27.0459 21.9141 26.9021 22.2102 26.6416 22.2593C26.5232 22.2779 26.4014 22.244 26.2863 22.2068C25.9463 22.1002 25.5826 21.97 25.3694 21.6858C25.2662 21.5487 25.207 21.3829 25.1174 21.2375C25.0615 21.1427 24.9888 21.0598 24.9042 20.982C24.329 20.4542 23.451 20.422 22.7811 20.823C22.5798 20.9448 22.3768 21.0649 22.1737 21.1867C22.0672 21.2493 21.9555 21.317 21.8811 21.4202C21.7035 21.6536 21.7745 21.9784 21.7931 22.2711C21.8337 22.963 21.541 23.6245 21.3228 24.2843C21.108 24.9423 20.9743 25.6969 21.311 26.3042C21.673 26.9656 22.4867 27.2431 23.2378 27.3175C23.4527 27.3395 23.6709 27.3514 23.8587 27.4512C24.1328 27.595 24.2833 27.8995 24.5168 28.1059C24.9651 28.5017 25.6266 28.4831 26.1882 28.676C27.0645 28.9788 27.6719 29.8162 27.9425 30.7027C28.1642 31.4064 28.198 32.1576 28.1912 32.9053Z" fill="#002831" stroke="#D8E3E5" stroke-miterlimit="10"/>
<path d="M21.7093 35.4533C19.8602 35.4533 18.0873 35.0405 16.4395 34.2268C16.3025 34.1591 16.2027 34.0356 16.1638 33.8884C16.1266 33.7412 16.1536 33.5839 16.2416 33.4587L17.0333 32.327C17.2262 32.0529 17.4427 31.745 17.4952 31.4422C17.5223 31.2781 17.507 31.0802 17.4901 30.8721C17.4681 30.5912 17.4411 30.2749 17.5155 29.945C17.5679 29.7082 17.666 29.4933 17.7523 29.3021C17.8589 29.0687 17.9587 28.8471 17.9198 28.7117C17.8775 28.5662 17.6525 28.4241 17.4326 28.2854C17.3582 28.238 17.2837 28.1907 17.2127 28.1416C16.9606 27.9674 16.7491 27.7694 16.5444 27.5783C16.3533 27.3989 16.1739 27.2315 15.9794 27.0995C15.658 26.8813 15.2621 26.8119 15.0608 26.9557C14.966 27.0217 14.8815 27.1435 14.7833 27.2856C14.7021 27.4006 14.6108 27.5326 14.4974 27.6544C14.4382 27.717 14.379 27.7728 14.3181 27.8253C14.242 27.8946 14.1692 27.9606 14.1405 28.013C14.1033 28.0807 14.0948 28.2194 14.0847 28.3649C14.0762 28.5121 14.0644 28.6796 14.0204 28.8555C13.8021 29.7318 12.9106 30.1599 12.4809 30.3645C12.2474 30.4762 11.9649 30.4001 11.8194 30.1852C11.4134 29.5813 11.0582 28.935 10.7672 28.2634C10.6623 28.0232 10.752 27.7424 10.977 27.6053C11.4845 27.2991 11.8753 26.7933 11.948 26.3484C11.9785 26.1623 11.9463 26.0117 11.855 25.9018C11.7585 25.7901 11.6063 25.6598 11.4439 25.5211C11.1275 25.2505 10.7672 24.9459 10.5879 24.5585C10.3865 24.1187 10.3882 23.5739 10.5879 23.1696C10.7418 22.8583 11.0023 22.6469 11.3238 22.5724C11.4067 22.5538 11.4912 22.5437 11.5758 22.5437C12.0766 22.5437 12.442 22.8736 12.7347 23.1392C12.8243 23.2204 12.9106 23.2982 12.9901 23.3591C13.1305 23.0123 13.2151 22.652 13.2473 22.2781C13.254 22.202 13.2574 22.1224 13.2625 22.0446C13.2828 21.6995 13.3048 21.307 13.4942 20.9332C13.7971 20.336 14.3638 20.0636 14.8645 19.8217C15.1927 19.6627 15.504 19.5138 15.6935 19.2989C15.7222 19.2651 15.751 19.2313 15.7781 19.1958C15.905 19.035 16.0809 18.8151 16.3736 18.7085C16.5444 18.6426 16.7745 18.6341 17.008 18.6544C17.052 18.6578 17.0976 18.6629 17.1399 18.6629C17.1484 18.5986 17.145 18.4734 17.0959 18.3245C16.9572 17.9083 16.7593 17.3196 17.1213 16.8189C17.3632 16.4873 17.7253 16.3841 17.9875 16.3097C18.0822 16.2826 18.1736 16.2572 18.2395 16.2268C18.429 16.1439 18.5542 15.9121 18.5542 15.6989C18.0974 15.5078 17.6221 15.2794 17.2347 14.9038C16.6612 14.3422 16.4412 13.5606 16.673 12.9127C16.7271 12.7604 16.8473 12.6454 16.9961 12.5946C18.4899 11.9518 20.0751 11.627 21.7059 11.627C23.851 11.627 25.9538 12.2038 27.786 13.295C27.9991 13.4219 28.0939 13.679 28.0144 13.9142C27.7775 14.6095 27.429 15.0662 26.9486 15.3082C26.7676 15.3995 26.5832 15.4503 26.4224 15.4959C26.3091 15.5281 26.2008 15.5568 26.1145 15.5958C25.9335 15.6753 25.7542 15.8343 25.5969 15.9764C25.0488 16.4585 24.4837 16.9559 24.142 17.5717L24.0743 17.6969C23.9796 17.8728 23.873 18.0741 23.6971 18.2535C23.4619 18.4903 23.176 18.6223 22.9239 18.7407C22.7091 18.8405 22.4875 18.9437 22.452 19.052C22.4333 19.1112 22.4841 19.2347 22.5805 19.3125C22.7074 19.4191 22.8969 19.4817 23.1845 19.5155C23.3672 19.5375 23.5651 19.5476 23.8256 19.5476C23.9474 19.5476 24.0692 19.5459 24.191 19.5443C24.3179 19.5426 24.4465 19.5409 24.5734 19.5409C24.8491 19.5409 25.2129 19.5493 25.5833 19.6187C26.5865 19.8048 27.5931 20.5661 27.5728 21.6606C27.566 22.136 27.2768 22.6723 26.7388 22.7721C26.6745 22.7822 26.6238 22.7856 26.573 22.7856C26.4055 22.7856 26.26 22.7467 26.1264 22.7027C25.7204 22.5741 25.2568 22.4033 24.9506 21.9973C24.861 21.8788 24.8001 21.7587 24.7476 21.6521C24.7223 21.6031 24.6986 21.554 24.6715 21.5083C24.641 21.4576 24.6021 21.4102 24.5514 21.3645C24.1758 21.0177 23.5313 20.9822 23.0525 21.2681L22.4452 21.6318C22.4029 21.6572 22.3268 21.7012 22.3082 21.7215C22.2777 21.7773 22.2946 21.9583 22.3048 22.0666C22.3098 22.1224 22.3149 22.1783 22.3183 22.2324C22.3589 22.9108 22.1457 23.5181 21.9394 24.1052C21.9004 24.2185 21.8598 24.3301 21.8226 24.4418C21.5892 25.1574 21.5723 25.6818 21.7719 26.0422C22.0832 26.6123 22.9392 26.7544 23.2927 26.7882L23.3638 26.795C23.5803 26.8153 23.8493 26.8424 24.1082 26.9794C24.367 27.1164 24.5412 27.3262 24.68 27.4937C24.7476 27.5749 24.8102 27.651 24.8711 27.7052C25.0623 27.8743 25.3634 27.9352 25.7119 28.0063C25.9251 28.0503 26.1433 28.0942 26.3649 28.1704C27.3207 28.5003 28.0989 29.3867 28.4491 30.5405C28.6961 31.3508 28.7232 32.1933 28.7164 32.9106C28.7147 33.0798 28.6301 33.2388 28.4914 33.3352C26.4952 34.7208 24.1504 35.4533 21.7093 35.4533ZM17.4597 33.5433C18.8029 34.1168 20.229 34.4061 21.7093 34.4061C23.8442 34.4061 25.898 33.792 27.6676 32.6281C27.6642 32.058 27.6236 31.427 27.4459 30.8484C27.1922 30.0127 26.6593 29.3833 26.0215 29.1634C25.8659 29.111 25.6882 29.0738 25.5004 29.0349C25.0674 28.9469 24.5768 28.8454 24.1741 28.4901C24.0523 28.3818 23.9559 28.2651 23.8696 28.1602C23.7783 28.0486 23.692 27.9454 23.6176 27.9048C23.5397 27.8642 23.4044 27.8506 23.2606 27.8371L23.1862 27.8303C22.0764 27.7204 21.2457 27.2653 20.8533 26.5463C20.5065 25.9204 20.4963 25.1236 20.8262 24.1119C20.8668 23.9918 20.9074 23.8734 20.9497 23.755C21.129 23.2424 21.2999 22.7585 21.2711 22.2916C21.2677 22.2493 21.2644 22.2036 21.2593 22.158C21.2322 21.8585 21.195 21.4491 21.4657 21.0922C21.5976 20.9078 21.7854 20.7978 21.9089 20.7251L22.435 20.4104C22.2591 20.3461 22.0798 20.2531 21.9174 20.1177C21.486 19.7709 21.2965 19.2093 21.4538 18.7238C21.6298 18.1807 22.1018 17.9608 22.4807 17.7849C22.6702 17.6969 22.8478 17.614 22.9476 17.5142C23.017 17.4431 23.0813 17.3247 23.1489 17.1978C23.1743 17.1505 23.1997 17.1014 23.2268 17.0557C23.6548 16.286 24.3179 15.704 24.9016 15.1897C25.1046 15.0087 25.3617 14.7803 25.6882 14.6365C25.8439 14.5672 26.0029 14.5232 26.1433 14.4843C26.2685 14.4505 26.3869 14.4166 26.4766 14.3726C26.6221 14.2982 26.7473 14.1679 26.8555 13.97C25.2822 13.1208 23.511 12.6741 21.7076 12.6741C20.3001 12.6741 18.9298 12.9397 17.6322 13.4659C17.639 13.6926 17.7608 13.9531 17.9689 14.1561C18.2785 14.4572 18.72 14.6365 19.1852 14.826C19.3138 14.8785 19.4322 14.985 19.4864 15.1136C19.8112 15.8817 19.4288 16.8493 18.6676 17.1843C18.5339 17.2452 18.3969 17.2841 18.2751 17.3179C18.1719 17.3467 17.9976 17.3974 17.9706 17.4347C17.9249 17.4973 18.0399 17.8407 18.0822 17.9693C18.0822 17.9709 18.0941 18.0031 18.0941 18.0048C18.3275 18.7271 18.1448 19.3565 17.6288 19.6085C17.4258 19.7067 17.1788 19.7219 16.9149 19.6982C16.8405 19.6914 16.7373 19.6914 16.7356 19.6914C16.7085 19.7083 16.6409 19.7912 16.5969 19.8471C16.558 19.8961 16.5174 19.9452 16.4768 19.9926C16.1469 20.3647 15.707 20.5779 15.3179 20.7657C14.917 20.9585 14.5702 21.126 14.4281 21.4068C14.3367 21.5862 14.3232 21.8382 14.308 22.1055C14.3029 22.1935 14.2978 22.2815 14.2911 22.3694C14.2454 22.9023 14.1151 23.4132 13.9036 23.8869C13.8546 24.007 13.7683 24.1796 13.5924 24.3098C13.4536 24.4147 13.2777 24.4723 13.0916 24.4723C12.8294 24.4723 12.6078 24.364 12.4674 24.2709C12.3016 24.1593 12.1645 24.0341 12.0309 23.914C11.8803 23.777 11.6723 23.5892 11.5758 23.5892C11.498 23.6247 11.4371 23.8954 11.5386 24.1187C11.6198 24.2929 11.8854 24.5196 12.1206 24.7209C12.3066 24.88 12.4995 25.0441 12.6518 25.22C12.9444 25.5668 13.0612 26.0253 12.9816 26.5142C12.8801 27.1367 12.4792 27.7627 11.904 28.2279C12.0647 28.5612 12.2424 28.8877 12.4352 29.2023C12.7177 29.0332 12.9427 28.8386 13.0036 28.5967C13.0239 28.5138 13.0307 28.4089 13.0375 28.2973C13.0527 28.0672 13.0696 27.7796 13.2236 27.5021C13.3369 27.2991 13.4892 27.1604 13.6127 27.0488C13.6533 27.0115 13.6939 26.9743 13.7328 26.9354C13.792 26.8711 13.8563 26.7798 13.9223 26.6833C14.0576 26.4888 14.2115 26.2689 14.4535 26.098C15.0083 25.7021 15.8762 25.763 16.5647 26.23C16.8253 26.4076 17.0452 26.6123 17.2567 26.8102C17.4427 26.9828 17.617 27.1469 17.8031 27.2771C17.8623 27.3177 17.9266 27.3583 17.9909 27.3989C18.3394 27.6189 18.7707 27.8929 18.923 28.4174C19.0719 28.9249 18.8689 29.3732 18.7048 29.7335C18.632 29.8926 18.5644 30.0414 18.5356 30.1717C18.4967 30.3459 18.5136 30.5591 18.5322 30.7858C18.5525 31.0379 18.5762 31.3221 18.5254 31.6164C18.4324 32.1544 18.1313 32.5824 17.8894 32.9258L17.4597 33.5433ZM25.2991 20.627C25.4057 20.7318 25.4954 20.8435 25.5664 20.9619C25.607 21.0279 25.6459 21.104 25.6832 21.1801C25.7187 21.2512 25.7525 21.3189 25.7847 21.3629C25.9048 21.5219 26.1754 21.6166 26.4427 21.7012C26.4698 21.7097 26.4918 21.7164 26.5087 21.7215C26.5172 21.6995 26.5223 21.6708 26.5239 21.6386C26.5324 21.1548 25.9437 20.7471 25.3905 20.6439C25.36 20.6371 25.3296 20.632 25.2991 20.627Z" fill="#002831" stroke="#D8E3E5" stroke-miterlimit="10"/>
<path d="M31.5841 29.2242C31.6399 28.7912 31.6315 28.3699 31.4504 27.9707C31.2542 27.5376 30.8583 27.1789 30.811 26.7053C30.7856 26.4126 30.8956 26.1284 30.97 25.8475C31.1696 25.0964 31.1104 24.2827 30.8076 23.5688C30.767 23.469 30.7145 23.3692 30.6299 23.31C30.5555 23.2575 30.4642 23.2389 30.3779 23.2288C30.1072 23.1915 29.8348 23.1882 29.5828 23.0985C29.3273 23.0054 29.0871 22.8058 29.0499 22.5402C29.0025 22.2036 29.5269 21.9515 29.867 21.9041C30.2036 21.8601 30.5437 21.9261 30.8837 21.9447C31.3828 21.9701 31.8903 21.8974 32.3606 21.7299C32.5501 21.6639 32.7345 21.5827 32.9189 21.5049C33.0373 22.1663 33.0999 22.8481 33.0999 23.5434C33.1016 25.6107 32.5501 27.5528 31.5841 29.2242Z" fill="#002831" stroke="#D8E3E5" stroke-miterlimit="10"/>
<path d="M31.5837 29.7484C31.5279 29.7484 31.472 29.7399 31.4162 29.7213C31.1794 29.6418 31.0322 29.4066 31.0643 29.1579C31.1168 28.7418 31.0897 28.4423 30.973 28.1869C30.9171 28.0651 30.8326 27.9365 30.7429 27.8012C30.55 27.5119 30.3335 27.1854 30.2895 26.7574C30.2591 26.4207 30.3436 26.1297 30.4181 25.8743C30.4333 25.8202 30.4485 25.766 30.4638 25.7136C30.6346 25.0724 30.5856 24.3839 30.325 23.7732C30.3217 23.763 30.3183 23.7546 30.3149 23.7478C30.3132 23.7478 30.3115 23.7478 30.3115 23.7478C30.2388 23.7376 30.1694 23.7309 30.1 23.7241C29.8886 23.7021 29.65 23.6784 29.4098 23.5938C28.9277 23.4196 28.5927 23.044 28.5318 22.6143C28.4997 22.3893 28.5606 22.166 28.7077 21.9698C28.9581 21.6382 29.4335 21.4369 29.7955 21.3861C30.0916 21.3472 30.3673 21.3743 30.6279 21.398C30.7243 21.4081 30.819 21.4166 30.9154 21.4217C31.3333 21.442 31.785 21.3794 32.1876 21.2356C32.3314 21.1848 32.4701 21.1256 32.6106 21.0664L32.7188 21.0207C32.866 20.9598 33.0318 20.9683 33.1722 21.0444C33.3126 21.1205 33.4091 21.2559 33.4378 21.4115C33.563 22.1153 33.6273 22.8309 33.6273 23.5414C33.6273 25.6324 33.0792 27.6878 32.0404 29.4861C31.9406 29.6519 31.7664 29.7484 31.5837 29.7484ZM29.628 22.5331C29.6602 22.5585 29.7042 22.5839 29.7617 22.6059C29.8801 22.6482 30.0391 22.6634 30.2066 22.682C30.2878 22.6905 30.369 22.6989 30.4502 22.7091C30.5839 22.726 30.7615 22.7615 30.9307 22.8799C31.1337 23.0203 31.2352 23.2267 31.2927 23.3705C31.6395 24.1876 31.7072 25.1181 31.4771 25.9826C31.4619 26.0435 31.4433 26.1044 31.4247 26.167C31.3705 26.3514 31.3215 26.5256 31.3333 26.6593C31.3502 26.8217 31.4737 27.0061 31.6158 27.2209C31.6818 27.319 31.7529 27.4256 31.8188 27.5406C32.3179 26.2752 32.5784 24.9185 32.5784 23.5431C32.5784 23.1083 32.553 22.6718 32.5006 22.2371C31.9745 22.4181 31.4162 22.4959 30.8596 22.4688C30.748 22.4621 30.638 22.4519 30.5264 22.4418C30.3301 22.4232 30.1322 22.3978 29.9376 22.4249C29.8277 22.4367 29.7076 22.4858 29.628 22.5331Z" fill="#002831" stroke="#D8E3E5" stroke-miterlimit="10"/>
<path d="M18.0109 31.53C17.9398 31.9377 17.6996 32.2879 17.4627 32.6245C17.2005 33.0018 16.9332 33.3791 16.671 33.7563C14.8845 32.8715 13.3603 31.5334 12.2539 29.8907C12.7936 29.6319 13.3671 29.302 13.5126 28.7251C13.5938 28.4037 13.5244 28.045 13.6834 27.7557C13.7866 27.5713 13.9676 27.4495 14.1131 27.2973C14.3432 27.0486 14.4836 26.7204 14.7577 26.5275C15.1975 26.2129 15.8268 26.3618 16.2751 26.6646C16.7235 26.9674 17.0669 27.4005 17.5101 27.7084C17.862 27.9486 18.3052 28.1516 18.4236 28.5627C18.5708 29.0651 18.1428 29.5473 18.0278 30.0565C17.9195 30.5386 18.0938 31.0445 18.0109 31.53Z" fill="#00B58A" stroke="#D8E3E5" stroke-miterlimit="10"/>
<path d="M16.672 34.2807C16.5941 34.2807 16.5146 34.2638 16.4402 34.2266C14.5793 33.3063 12.9823 31.9072 11.8201 30.1833C11.7355 30.0564 11.7084 29.9008 11.749 29.7536C11.7896 29.6064 11.8911 29.4846 12.0282 29.4187C12.4832 29.2004 12.9163 28.9501 13.0043 28.5982C13.0246 28.5153 13.0314 28.4104 13.0381 28.2987C13.0533 28.0687 13.0703 27.7811 13.2242 27.5036C13.3376 27.3006 13.4898 27.1619 13.6133 27.0502C13.6539 27.013 13.6945 26.9758 13.7334 26.9369C13.7926 26.8726 13.8569 26.7813 13.9229 26.6848C14.0582 26.4903 14.2122 26.2704 14.4541 26.0995C15.009 25.7036 15.8768 25.7645 16.5654 26.2314C16.8259 26.4091 17.0458 26.6138 17.2573 26.8117C17.4434 26.9843 17.6176 27.1484 17.8037 27.2786C17.8629 27.3192 17.9272 27.3598 17.9915 27.4004C18.34 27.6204 18.7714 27.8944 18.9236 28.4188C19.0725 28.9264 18.8695 29.3747 18.7054 29.735C18.6327 29.894 18.565 30.0429 18.5362 30.1732C18.4973 30.3474 18.5142 30.5606 18.5329 30.7873C18.5532 31.0393 18.5768 31.3235 18.5261 31.6179C18.433 32.1559 18.1319 32.5839 17.89 32.9273L17.1 34.0574C17.0001 34.2012 16.8377 34.2807 16.672 34.2807ZM13.0263 30.0717C13.9584 31.3083 15.1477 32.3369 16.5045 33.0796L17.0323 32.3251C17.2251 32.051 17.4417 31.7431 17.4941 31.4403C17.5212 31.2762 17.506 31.0782 17.4891 30.8702C17.4671 30.5893 17.44 30.273 17.5144 29.9431C17.5669 29.7063 17.665 29.4914 17.7513 29.3002C17.8579 29.0668 17.9577 28.8452 17.9188 28.7098C17.8765 28.5643 17.6515 28.4222 17.4315 28.2835C17.3571 28.2361 17.2827 28.1888 17.2116 28.1397C16.9595 27.9655 16.7481 27.7675 16.5434 27.5764C16.3522 27.397 16.1729 27.2296 15.9783 27.0976C15.6586 26.8811 15.2594 26.81 15.0597 26.9538C14.965 27.0198 14.8804 27.1416 14.7823 27.2837C14.7011 27.3987 14.6097 27.5307 14.4964 27.6525C14.4372 27.7151 14.378 27.7709 14.3171 27.8234C14.2409 27.8927 14.1682 27.9587 14.1394 28.0111C14.1022 28.0788 14.0938 28.2175 14.0836 28.363C14.0751 28.5102 14.0633 28.6777 14.0193 28.8536C13.8738 29.4356 13.4323 29.8196 13.0263 30.0717Z" fill="#00B58A" stroke="#D8E3E5" stroke-miterlimit="10"/>
<path d="M88.834 46.4059C88.834 46.0625 89.0776 45.8223 89.4176 45.8223C89.7577 45.8223 89.9996 46.0642 89.9996 46.4059C89.9996 46.7426 89.7577 46.9879 89.4176 46.9879C89.0776 46.9879 88.834 46.7442 88.834 46.4059ZM88.9846 46.4059C88.9846 46.6698 89.152 46.8475 89.4176 46.8475C89.6832 46.8475 89.8541 46.6698 89.8541 46.4059C89.8541 46.1403 89.6832 45.961 89.4176 45.961C89.152 45.9627 88.9846 46.1403 88.9846 46.4059ZM89.5648 46.4668L89.7069 46.6918H89.4921L89.3736 46.4854H89.3567V46.6918H89.1723V46.1048H89.4599C89.5868 46.1048 89.6714 46.1809 89.6714 46.2976C89.6748 46.3755 89.6342 46.4364 89.5648 46.4668ZM89.3567 46.2638V46.3484H89.4447C89.4701 46.3484 89.4921 46.3349 89.4921 46.3044C89.4921 46.274 89.4701 46.2638 89.4447 46.2638H89.3567Z" fill="#012831"/>
<path d="M48.7553 35.6278H48.0059V34.3201H48.7553V32.7637H50.3574V34.3201H51.7666V35.6278H50.3574V38.6729C50.3574 39.0941 50.5282 39.2751 51.0273 39.2751H51.7666V40.6167H50.7668C49.5623 40.6167 48.7553 40.1058 48.7553 38.6627V35.6278Z" fill="#03B58B"/>
<path d="M54.504 40.616H52.9121V34.3211H54.504V35.2989C54.9016 34.651 55.5613 34.2314 56.436 34.2314V35.8995H56.0147C55.0708 35.8995 54.504 36.2632 54.504 37.4796V40.616Z" fill="#03B58B"/>
<path d="M57.332 32.6382C57.332 32.1154 57.7414 31.7061 58.3098 31.7061C58.8664 31.7061 59.2877 32.1154 59.2877 32.6382C59.2877 33.1609 58.8664 33.5703 58.3098 33.5703C57.7414 33.5703 57.332 33.1609 57.332 32.6382ZM57.5029 34.3198H59.0948V40.6147H57.5029V34.3198Z" fill="#03B58B"/>
<path d="M64.3332 34.2188C65.9471 34.2188 67.2074 35.4808 67.2074 37.4466C67.2074 39.4124 65.9454 40.7201 64.3332 40.7201C63.3452 40.7201 62.6397 40.2312 62.254 39.7203V43.618H60.6621V34.3219H62.254V35.2304C62.6279 34.6958 63.3553 34.2188 64.3332 34.2188ZM63.9119 35.6161C63.0593 35.6161 62.2523 36.2759 62.2523 37.4686C62.2523 38.6612 63.0593 39.321 63.9119 39.321C64.7764 39.321 65.5833 38.6392 65.5833 37.4466C65.5817 36.2522 64.7747 35.6161 63.9119 35.6161Z" fill="#03B58B"/>
<path d="M72.0343 34.2188C73.6482 34.2188 74.9086 35.4808 74.9086 37.4466C74.9086 39.4124 73.6466 40.7201 72.0343 40.7201C71.0464 40.7201 70.3409 40.2312 69.9552 39.7203V43.618H68.3633V34.3219H69.9552V35.2304C70.3291 34.6958 71.0565 34.2188 72.0343 34.2188ZM71.6131 35.6161C70.7605 35.6161 69.9535 36.2759 69.9535 37.4686C69.9535 38.6612 70.7605 39.321 71.6131 39.321C72.4776 39.321 73.2845 38.6392 73.2845 37.4466C73.2845 36.2522 72.4776 35.6161 71.6131 35.6161Z" fill="#03B58B"/>
<path d="M78.8639 40.7193C77.0453 40.7193 75.6699 39.4472 75.6699 37.4695C75.6699 35.4801 77.091 34.2197 78.9079 34.2197C80.7265 34.2197 82.1476 35.4818 82.1476 37.4695C82.1476 39.4455 80.6927 40.7193 78.8639 40.7193ZM78.8639 39.3321C79.7047 39.3321 80.5117 38.718 80.5117 37.4678C80.5117 36.2058 79.7284 35.6036 78.8859 35.6036C78.0451 35.6036 77.2838 36.2058 77.2838 37.4678C77.2838 38.718 78.0113 39.3321 78.8639 39.3321Z" fill="#03B58B"/>
<path d="M52.175 45.8223C53.7889 45.8223 55.0509 47.0843 55.0509 49.0501C55.0509 51.0159 53.7889 52.3236 52.175 52.3236C51.187 52.3236 50.4815 51.8685 50.0958 51.3238V52.2221H48.5039V43.8125H50.0958V46.8475C50.4832 46.2655 51.2208 45.8223 52.175 45.8223ZM51.7554 47.2196C50.9028 47.2196 50.0958 47.8794 50.0958 49.0721C50.0958 50.2648 50.9028 50.9245 51.7554 50.9245C52.6199 50.9245 53.4268 50.2428 53.4268 49.0501C53.4268 47.8557 52.6199 47.2196 51.7554 47.2196Z" fill="#012831"/>
<path d="M58.6748 45.8223C59.6864 45.8223 60.38 46.2993 60.7539 46.8221V45.9238H62.356V52.2187H60.7539V51.2984C60.3783 51.8431 59.6627 52.3219 58.6629 52.3219C57.071 52.3219 55.7988 51.0142 55.7988 49.0484C55.7988 47.0826 57.0727 45.8223 58.6748 45.8223ZM59.0842 47.2196C58.2315 47.2196 57.4246 47.8557 57.4246 49.0501C57.4246 50.2427 58.2315 50.9245 59.0842 50.9245C59.9588 50.9245 60.7539 50.2647 60.7539 49.0721C60.7539 47.8794 59.9588 47.2196 59.0842 47.2196Z" fill="#012831"/>
<path d="M68.1381 47.2076L65.3654 50.9125H68.1719V52.2185H63.5586V50.9345L66.3093 47.2296H63.5704V45.9219H68.1381V47.2076Z" fill="#012831"/>
<path d="M71.8642 45.8223C72.8759 45.8223 73.5695 46.2993 73.9434 46.8221V45.9238H75.5454V52.2187H73.9434V51.2984C73.5678 51.8431 72.8522 52.3219 71.8524 52.3219C70.2605 52.3219 68.9883 51.0142 68.9883 49.0484C68.99 47.0826 70.2622 45.8223 71.8642 45.8223ZM72.2736 47.2196C71.421 47.2196 70.614 47.8557 70.614 49.0501C70.614 50.2427 71.421 50.9245 72.2736 50.9245C73.1482 50.9245 73.9434 50.2647 73.9434 49.0721C73.9434 47.8794 73.1482 47.2196 72.2736 47.2196Z" fill="#012831"/>
<path d="M79.5673 45.8223C80.579 45.8223 81.2726 46.2993 81.6465 46.8221V45.9238H83.2486V52.2187H81.6465V51.2984C81.2709 51.8431 80.5553 52.3219 79.5555 52.3219C77.9636 52.3219 76.6914 51.0142 76.6914 49.0484C76.6931 47.0826 77.9653 45.8223 79.5673 45.8223ZM79.9767 47.2196C79.1241 47.2196 78.3172 47.8557 78.3172 49.0501C78.3172 50.2427 79.1241 50.9245 79.9767 50.9245C80.8514 50.9245 81.6465 50.2647 81.6465 49.0721C81.6482 47.8794 80.8514 47.2196 79.9767 47.2196Z" fill="#012831"/>
<path d="M86.3946 52.1961H84.8027V45.9012H86.3946V46.879C86.7922 46.2311 87.452 45.8115 88.3266 45.8115V47.4813H87.9054C86.9614 47.4813 86.3946 47.845 86.3946 49.0613V52.1961Z" fill="#012831"/>
<path d="M82.168 34.4277C82.168 34.4277 82.9157 34.8304 83.2794 35.8437M89.2529 35.4597C89.1074 35.2787 88.8909 35.1721 88.6574 35.1721H83.0697L83.7007 37.7537V37.7706L83.9206 38.6571C84.0001 38.9971 84.3046 39.2356 84.6531 39.2356H88.0349C88.3885 39.2356 88.6879 38.9971 88.7725 38.6571L89.395 36.1059C89.4475 35.8775 89.3984 35.6441 89.2529 35.4597ZM89.1125 36.0366L88.49 38.5928C88.4375 38.8009 88.2514 38.9463 88.0349 38.9463H84.6531C84.4366 38.9463 84.2522 38.8009 84.198 38.5928L83.9815 37.7012L83.8969 37.3477H87.6187V37.0601H83.8276L83.4435 35.4614H88.6574C88.8029 35.4614 88.9349 35.524 89.0245 35.6373C89.1125 35.7541 89.143 35.8962 89.1125 36.0366ZM84.4112 39.618C83.9747 39.618 83.6161 39.9749 83.6161 40.4131C83.6161 40.8546 83.973 41.2116 84.4112 41.2116C84.8527 41.2116 85.2097 40.8546 85.2097 40.4131C85.2097 39.9749 84.8527 39.618 84.4112 39.618ZM84.4112 40.9189C84.1337 40.9189 83.9037 40.6939 83.9037 40.4114C83.9037 40.1339 84.1337 39.9039 84.4112 39.9039C84.6937 39.9039 84.9187 40.1339 84.9187 40.4114C84.9187 40.6939 84.6937 40.9189 84.4112 40.9189ZM88.2785 39.618C87.837 39.618 87.48 39.9749 87.48 40.4131C87.48 40.8546 87.837 41.2116 88.2785 41.2116C88.72 41.2116 89.077 40.8546 89.077 40.4131C89.077 39.9749 88.72 39.618 88.2785 39.618ZM88.2785 40.9189C88.0011 40.9189 87.771 40.6939 87.771 40.4114C87.771 40.1339 88.0011 39.9039 88.2785 39.9039C88.561 39.9039 88.786 40.1339 88.786 40.4114C88.786 40.6939 88.561 40.9189 88.2785 40.9189Z" stroke="url(#paint0_linear_1537_12430)" stroke-width="0.5" stroke-miterlimit="10"/>
<defs>
<linearGradient id="paint0_linear_1537_12430" x1="82.0635" y1="37.8322" x2="89.6362" y2="37.8322" gradientUnits="userSpaceOnUse">
<stop stop-color="#27C0EC"/>
<stop offset="0.3883" stop-color="#06B5AB"/>
<stop offset="0.7263" stop-color="#19AB54"/>
<stop offset="1" stop-color="#C8D251"/>
</linearGradient>
</defs>
</svg>
