<svg width="310" height="310" viewBox="0 0 310 310" fill="none" xmlns="http://www.w3.org/2000/svg">
<path d="M165.756 0.000153989C166.266 0.0638859 166.769 0.159484 167.288 0.19135C172.831 0.48611 178.351 1.0358 183.839 1.89618C193.555 3.42574 203.015 5.91129 212.22 9.33688C219.766 12.1411 227.025 15.5507 234.013 19.5499C240.283 23.1428 246.289 27.134 251.992 31.5793C257.417 35.8175 262.562 40.3664 267.364 45.2976C272.413 50.4838 277.063 55.9966 281.323 61.852C286.97 69.6273 291.82 77.8646 295.888 86.5561C298.098 91.2882 300.036 96.1238 301.751 101.055C303.698 106.656 305.357 112.344 306.569 118.143C307.375 121.983 308.029 125.863 308.635 129.742C309.337 134.204 309.776 138.689 309.856 143.214C309.864 143.628 309.951 144.034 309.999 144.449C309.999 148.384 309.999 152.319 309.999 156.263C309.936 157.123 309.872 157.992 309.808 158.852C309.616 161.361 309.513 163.871 309.21 166.364C308.779 169.941 308.205 173.502 307.678 177.071C307.511 178.179 307.247 179.278 307.072 180.385C306.817 181.971 306.601 183.556 306.354 185.141C305.636 189.658 304.647 194.128 303.49 198.549C301.424 206.452 298.712 214.123 295.386 221.58C290.496 232.526 284.386 242.747 277.016 252.203C273.003 257.35 268.664 262.209 263.997 266.782C259.1 271.578 253.915 276.023 248.435 280.142C240.139 286.364 231.293 291.653 221.904 296.043C213.281 300.074 204.347 303.276 195.086 305.483C190.947 306.471 186.751 307.292 182.555 308.001C177.083 308.917 171.555 309.331 166.019 309.737C162.789 309.976 159.574 310.008 156.343 309.992C154.445 309.984 152.546 309.745 150.648 309.626C146.197 309.355 141.754 308.965 137.351 308.295C135.596 308.024 133.857 307.658 132.11 307.355C130.906 307.14 129.693 306.997 128.505 306.75C127.061 306.447 125.625 306.057 124.189 305.706C124.062 305.674 123.942 305.635 123.814 305.603C122.506 305.268 121.206 304.878 119.89 304.607C116.149 303.834 112.551 302.575 108.962 301.309C100.068 298.178 91.5803 294.179 83.452 289.407C77.629 285.981 72.0452 282.197 66.7327 278.023C57.6712 270.925 49.5508 262.878 42.284 253.956C39.9229 251.056 37.3704 248.308 34.9694 245.432C31.1804 240.899 27.6946 236.135 24.456 231.188C20.9622 225.858 17.8353 220.337 15.0435 214.617C11.9405 208.252 9.32415 201.696 7.21031 194.94C6.51634 192.733 5.8782 190.503 5.27197 188.264C4.94492 187.085 4.77741 185.866 4.45834 184.687C2.98264 179.294 2.11318 173.781 1.40325 168.244C0.852854 163.958 0.493901 159.649 0.342343 155.323C0.318413 154.662 0.142924 154.008 0.03125 153.347C0.03125 150.766 0.03125 148.185 0.03125 145.604C0.103041 145.365 0.230668 145.126 0.246622 144.879C0.366273 143.206 0.454017 141.541 0.565691 139.868C0.597598 139.358 0.661412 138.848 0.701296 138.33C0.781063 137.207 0.828924 136.084 0.932621 134.96C1.3155 130.651 1.93769 126.381 2.71941 122.126C3.82818 116.128 5.28792 110.217 7.13852 104.401C9.45975 97.1037 12.3234 90.0294 15.7374 83.1703C19.9013 74.7975 24.807 66.8868 30.4386 59.4302C35.7192 52.4356 41.5741 45.9509 47.9954 39.984C54.991 33.4833 62.5449 27.7156 70.6573 22.6728C79.0408 17.4627 87.8551 13.1369 97.1002 9.66351C104.359 6.93897 111.777 4.78005 119.355 3.20268C123.487 2.3423 127.651 1.58549 131.855 1.16326C135.771 0.772903 139.696 0.494076 143.621 0.159484C143.9 0.135584 144.179 0.0479529 144.466 -0.0078125C151.541 0.000153989 158.649 0.000153989 165.756 0.000153989ZM158.856 11.8862C156.304 11.9658 153.751 12.0057 151.206 12.1331C144.681 12.4518 138.196 13.1847 131.783 14.4115C128.401 15.0568 125.019 15.7499 121.677 16.5625C119.204 17.1679 116.779 17.9885 114.346 18.7453C104.447 21.8443 94.9863 25.9629 85.9646 31.0615C76.7994 36.2317 68.2483 42.2783 60.3513 49.249C50.875 57.6058 42.5951 66.9983 35.5437 77.4663C27.9498 88.7389 21.9912 100.816 17.6838 113.706C16.2161 118.103 14.9318 122.557 13.8549 127.058C13.2168 129.75 12.7143 132.475 12.5468 135.255C12.3314 138.856 11.9325 142.457 11.8687 146.066C11.789 150.32 11.8927 154.582 12.0681 158.836C12.1878 161.792 12.5148 164.747 12.8499 167.695C13.137 170.188 13.5199 172.674 13.9586 175.143C14.5728 178.561 15.2429 181.979 15.9767 185.372C16.3277 187.006 16.8462 188.607 17.3089 190.216C18.8324 195.546 20.5953 200.788 22.6772 205.926C26.4263 215.159 31.0448 223.93 36.5966 232.199C44.2064 243.512 53.2201 253.589 63.5979 262.44C70.7131 268.511 78.3309 273.864 86.4512 278.509C94.5636 283.153 103.043 286.985 111.897 290.004C117.122 291.789 122.426 293.271 127.819 294.442C132.645 295.485 137.494 296.377 142.408 296.871C145.814 297.214 149.22 297.541 152.626 297.764C156.439 298.011 160.236 297.628 164.033 297.262C168.596 296.824 173.126 296.17 177.633 295.326C185.1 293.924 192.414 291.972 199.569 289.439C213.569 284.483 226.563 277.616 238.464 268.718C249.288 260.632 258.86 251.263 267.18 240.628C274.008 231.897 279.839 222.544 284.482 212.49C286.468 208.188 288.223 203.783 289.986 199.385C290.743 197.481 291.302 195.49 291.844 193.514C292.945 189.539 294.118 185.572 295.011 181.548C296.981 172.682 298.09 163.696 298.409 154.606C298.68 146.918 298.313 139.262 297.508 131.622C297.229 128.938 296.686 126.285 296.231 123.624C295.274 118.087 293.966 112.63 292.363 107.245C290.305 100.338 287.736 93.6223 284.681 87.0978C280.741 78.6931 276.058 70.7107 270.618 63.1824C269.446 61.5652 268.305 59.9002 266.973 58.4184C265.138 56.387 263.168 54.4591 261.174 52.579C255.837 47.5362 250.174 42.8997 244.151 38.6934C238.528 34.7659 232.681 31.2288 226.571 28.1059C217.972 23.7164 209.03 20.1952 199.729 17.5981C196.682 16.7457 193.619 15.973 190.54 15.2321C188.984 14.8577 187.381 14.6585 185.801 14.3717C184.31 14.1008 182.834 13.7583 181.335 13.5352C179.683 13.2883 178.008 13.1608 176.349 12.9616C170.542 12.2685 164.711 11.934 158.856 11.8862ZM50.173 261.301C50.1411 261.333 50.1012 261.365 50.0693 261.397C50.2129 261.58 50.3485 261.779 50.516 261.954C54.1135 265.762 57.9184 269.339 61.8988 272.741C67.8016 277.776 74.0394 282.356 80.6761 286.372C83.5477 288.108 86.4512 289.789 89.4186 291.359C98.1372 295.971 107.255 299.628 116.739 302.344C118.901 302.966 121.07 303.571 123.232 304.177C123.575 304.272 123.926 304.304 124.277 304.376C124.875 304.495 125.473 304.623 126.072 304.75C126.702 304.886 127.324 305.013 127.954 305.149C128.273 305.212 128.584 305.276 128.903 305.34C130.196 305.611 131.472 305.929 132.772 306.136C134.391 306.399 136.027 306.583 137.654 306.782C140.183 307.092 142.711 307.443 145.248 307.666C148.016 307.905 150.792 308.017 153.568 308.16C158.25 308.391 162.932 308.271 167.607 307.961C170.215 307.785 172.815 307.539 175.424 307.299C176.931 307.164 178.439 307.005 179.939 306.79C181.047 306.638 182.148 306.359 183.257 306.184C188.067 305.419 192.813 304.352 197.519 303.069C207.833 300.265 217.708 296.37 227.177 291.43C234.204 287.766 240.897 283.559 247.262 278.851C250.948 276.127 254.481 273.203 257.903 270.152C264.572 264.201 270.634 257.684 276.106 250.634C282.703 242.142 288.287 233.028 292.897 223.309C296.04 216.681 298.664 209.853 300.826 202.843C300.914 202.572 300.962 202.285 301.025 202.014C300.786 202.285 300.651 202.572 300.539 202.867C296.67 213.207 291.701 222.982 285.654 232.215C282.735 236.677 279.584 240.963 276.186 245.073C270.77 251.638 264.835 257.692 258.398 263.253C252.774 268.112 246.808 272.526 240.53 276.509C231.748 282.078 222.494 286.706 212.731 290.307C205.975 292.801 199.099 294.912 191.999 296.234C189.822 296.64 187.66 297.158 185.474 297.533C183.377 297.891 181.263 298.154 179.149 298.433C173.733 299.15 168.285 299.492 162.821 299.556C160.332 299.588 157.843 299.429 155.362 299.508C145.184 299.859 135.093 299.086 125.059 297.413C118.677 296.346 112.408 294.824 106.226 292.92C99.4294 290.825 92.8087 288.268 86.3635 285.248C79.5912 282.078 73.1141 278.405 66.9002 274.262C61.5159 270.678 56.3949 266.758 51.561 262.456C51.0983 262.058 50.6277 261.683 50.173 261.301ZM31.1405 238.684C31.2123 238.644 31.2841 238.604 31.3559 238.565C31.2522 238.381 31.1485 238.19 31.0448 238.007C29.1942 234.685 27.2399 231.411 25.501 228.025C19.319 215.996 14.8919 203.337 12.1559 190.089C11.6135 187.444 11.2146 184.767 10.8158 182.09C10.3851 179.222 9.94634 176.354 9.6512 173.47C9.08485 167.95 8.93329 162.405 9.02901 156.852C9.11675 151.65 9.41987 146.464 10.1458 141.318C10.8716 136.187 11.8049 131.081 12.6425 125.958C12.9695 123.959 13.2567 121.951 13.6475 119.968C16.0884 107.659 20.0529 95.8609 25.4691 84.5405C27.9897 79.2667 30.8294 74.1682 33.9563 69.229C38.3196 62.3459 43.2333 55.8771 48.6894 49.8146C52.9489 45.0825 57.4877 40.6372 62.3056 36.4707C67.7857 31.7307 73.5608 27.4049 79.6551 23.4854C85.2547 19.8845 91.0777 16.682 97.1082 13.8698C104.957 10.2052 113.07 7.24966 121.445 5.05091C123.607 4.48529 125.777 3.96747 127.946 3.42574C127.779 3.36998 127.611 3.37795 127.46 3.40184C117.864 4.92344 108.499 7.31339 99.3656 10.6195C84.0423 16.1721 70.059 24.0828 57.368 34.2879C50.1571 40.0875 43.5284 46.5006 37.498 53.527C31.8744 60.0834 26.8411 67.0621 22.422 74.4789C15.7215 85.7355 10.6164 97.6693 7.13852 110.296C4.68966 119.195 3.00657 128.237 2.28867 137.446C2.06532 140.274 1.81006 143.102 1.78613 145.938C1.74625 150.32 1.83399 154.709 1.9696 159.091C2.04139 161.473 2.26474 163.855 2.5519 166.221C2.92681 169.32 3.3735 172.411 3.87604 175.494C4.32274 178.226 4.84122 180.943 5.39959 183.66C5.73462 185.293 6.18132 186.91 6.65194 188.519C7.30604 190.774 8.00799 193.012 8.72589 195.243C10.5605 200.915 12.7222 206.468 15.2269 211.885C18.3698 218.68 21.9832 225.229 26.1311 231.466C27.7664 233.888 29.4734 236.27 31.1405 238.684ZM17.8194 108.552C26.4981 85.2495 39.9628 65.2059 58.4848 48.6037C76.9908 32.0175 98.2807 20.5537 122.466 14.6346C146.62 8.72346 170.821 8.79516 194.935 14.7939C219.065 20.8007 240.251 32.4238 258.821 48.9144C258.709 48.6834 258.565 48.4922 258.406 48.3169C254.489 44.1425 250.365 40.1991 245.994 36.5106C235.64 27.7713 224.273 20.6174 211.949 14.9931C204.387 11.5436 196.57 8.76329 188.53 6.62031C179.675 4.26223 170.67 2.72469 161.536 2.03161C159.478 1.87228 157.404 1.70498 155.346 1.76075C148.462 1.93601 141.626 2.6291 134.854 3.8639C132.349 4.31799 129.853 4.80395 127.372 5.37753C124.732 5.99095 122.099 6.66014 119.499 7.40899C109.783 10.1973 100.458 13.9734 91.5085 18.6736C81.4339 23.9634 72.0771 30.3286 63.4463 37.7374C58.0939 42.3261 53.1085 47.2813 48.474 52.5949C40.1144 62.1786 33.1108 72.6705 27.4313 84.0466C23.77 91.3838 20.7389 98.9758 18.3139 106.807C18.1225 107.396 17.9789 107.978 17.8194 108.552ZM182.348 296.107C182.356 296.162 182.372 296.226 182.379 296.282C183.297 296.146 184.214 296.019 185.123 295.86C187.501 295.445 189.878 295.047 192.247 294.561C193.818 294.242 195.358 293.788 196.905 293.366C198.74 292.872 200.574 292.386 202.401 291.853C208.567 290.052 214.582 287.813 220.452 285.193C230.607 280.668 240.147 275.099 249.065 268.463C258.063 261.763 266.215 254.171 273.498 245.639C278.26 240.054 282.583 234.151 286.46 227.921C293.719 216.266 299.263 203.839 303.099 190.662C303.961 187.699 304.775 184.719 305.484 181.716C305.907 179.899 306.17 178.035 306.338 176.179C306.697 172.355 307.056 168.531 307.215 164.699C307.447 159.187 307.295 153.674 306.864 148.161C306.418 142.497 305.636 136.88 304.639 131.296C304.112 128.356 303.323 125.456 302.581 122.557C299.39 110.145 294.668 98.3544 288.366 87.1854C285.463 82.0391 282.24 77.0919 278.723 72.3359C278.539 72.0889 278.348 71.8579 278.156 71.6189C278.092 71.6587 278.029 71.6986 277.965 71.7384C278.132 72.0252 278.292 72.3199 278.459 72.6067C281.451 77.546 284.155 82.6366 286.564 87.8865C289.467 94.2198 291.9 100.728 293.886 107.412C295.761 113.714 297.141 120.119 298.17 126.604C298.481 128.571 298.656 130.555 298.904 132.531C299.095 134.124 299.39 135.709 299.486 137.303C299.709 141.23 299.941 145.158 299.996 149.093C300.084 155.323 299.725 161.529 298.991 167.719C298.441 172.363 297.707 176.968 296.718 181.533C295.873 185.428 294.987 189.324 293.687 193.108C293.121 194.773 292.722 196.494 292.139 198.151C291.222 200.764 290.273 203.369 289.244 205.934C285.981 214.068 281.993 221.827 277.327 229.244C269.844 241.146 260.895 251.821 250.437 261.229C243.768 267.22 236.629 272.574 228.988 277.274C217.573 284.3 205.408 289.662 192.558 293.454C189.902 294.234 187.197 294.88 184.517 295.581C183.783 295.804 183.058 295.947 182.348 296.107ZM179.875 2.90792C179.875 2.93182 179.867 2.96369 179.867 2.98759C182.675 3.67271 185.498 4.31799 188.298 5.05091C199.442 7.99054 210.107 12.1729 220.293 17.5742C224.568 19.8367 228.748 22.2585 232.721 25.0309C234.252 26.0984 235.864 27.0623 237.379 28.1458C242.684 31.9537 247.701 36.1043 252.463 40.5735C257.345 45.1462 261.892 50.0377 266.127 55.2159C267.962 57.4624 269.749 59.7568 271.567 62.0193C273.889 64.9111 276.306 67.7392 278.539 70.6948C283.158 76.8051 287.186 83.2818 290.775 90.0534C293.559 95.3033 296 100.697 298.178 106.209C300.93 113.204 303.044 120.39 304.711 127.711C305.333 130.443 305.859 133.192 306.306 135.956C306.785 138.88 307.191 141.82 307.503 144.759C307.838 147.962 308.037 151.18 308.244 154.399C308.38 156.486 308.412 158.581 308.492 160.668C308.667 159.449 308.755 158.231 308.819 157.004C309.353 147.532 308.899 138.107 307.574 128.723C306.131 118.502 303.674 108.528 300.14 98.8245C297.492 91.5431 294.317 84.4927 290.536 77.7212C284.067 66.13 276.154 55.6142 266.837 46.1421C260.28 39.4661 253.173 33.4435 245.491 28.1059C231.883 18.6656 217.126 11.679 201.181 7.21779C194.672 5.39347 188.075 4.0073 181.374 3.10708C180.872 3.03539 180.369 2.97165 179.875 2.90792ZM131.073 296.855C131.089 296.8 131.097 296.744 131.113 296.68C130.898 296.624 130.682 296.553 130.459 296.513C123.224 295.063 116.149 293.055 109.233 290.514C95.6803 285.535 83.1329 278.708 71.5427 270.112C61.1969 262.432 51.9758 253.581 43.8953 243.552C34.1238 231.411 26.4662 218.059 20.8585 203.536C18.984 198.692 17.3009 193.785 16.0804 188.726C15.546 186.504 14.852 184.313 14.3495 182.09C12.2117 172.594 10.9913 162.971 10.7679 153.236C10.736 151.794 10.6961 150.344 10.6563 148.902C10.4568 149.81 10.3452 150.726 10.3053 151.642C10.066 156.605 9.98622 161.569 10.2096 166.54C10.417 171.312 10.8956 176.052 11.4699 180.784C11.5736 181.644 11.6773 182.504 11.8049 183.365C11.8847 183.907 12.0283 184.432 12.116 184.974C12.2357 185.707 12.2835 186.448 12.4351 187.173C12.8578 189.188 13.3045 191.196 13.7592 193.203C15.0116 198.764 16.575 204.245 18.4655 209.622C22.4459 220.951 27.7105 231.666 34.3552 241.68C35.8149 243.878 37.2667 246.117 38.9657 248.132C43.0658 253 47.6444 257.421 52.4464 261.596C58.8358 267.148 65.6639 272.119 72.9147 276.501C83.7631 283.057 95.2576 288.156 107.398 291.813C112.647 293.398 117.975 294.673 123.368 295.645C125.912 296.091 128.497 296.449 131.073 296.855Z" fill="white"/>
</svg>
