<svg width="257" height="257" viewBox="0 0 257 257" fill="none" xmlns="http://www.w3.org/2000/svg">
<path d="M137.418 -0.000109391C137.842 0.0527264 138.258 0.13198 138.688 0.158398C143.284 0.402764 147.86 0.858473 152.41 1.57176C160.465 2.83982 168.308 4.90041 175.939 7.74034C182.195 10.0651 188.213 12.8918 194.006 16.2073C199.203 19.1859 204.183 22.4947 208.911 26.18C213.408 29.6936 217.674 33.4648 221.655 37.5529C225.841 41.8525 229.696 46.4228 233.227 51.277C237.909 57.723 241.93 64.552 245.303 71.7575C247.134 75.6806 248.741 79.6895 250.163 83.7777C251.777 88.4206 253.152 93.1362 254.157 97.9443C254.825 101.128 255.367 104.344 255.87 107.56C256.452 111.259 256.816 114.977 256.882 118.729C256.888 119.072 256.961 119.409 257.001 119.752C257.001 123.015 257.001 126.277 257.001 129.547C256.948 130.26 256.895 130.98 256.842 131.693C256.683 133.774 256.598 135.854 256.346 137.921C255.989 140.887 255.513 143.839 255.077 146.798C254.938 147.716 254.719 148.627 254.574 149.545C254.362 150.859 254.184 152.174 253.979 153.488C253.384 157.233 252.564 160.938 251.605 164.603C249.892 171.155 247.644 177.515 244.886 183.697C240.832 192.771 235.767 201.245 229.656 209.084C226.33 213.351 222.732 217.38 218.864 221.171C214.803 225.146 210.505 228.832 205.962 232.246C199.084 237.404 191.751 241.79 183.967 245.429C176.819 248.771 169.412 251.426 161.734 253.255C158.302 254.074 154.824 254.754 151.345 255.342C146.809 256.102 142.226 256.445 137.637 256.782C134.958 256.98 132.293 257.007 129.615 256.993C128.041 256.987 126.467 256.789 124.894 256.689C121.203 256.465 117.52 256.141 113.87 255.587C112.415 255.362 110.973 255.058 109.525 254.807C108.526 254.629 107.521 254.51 106.536 254.305C105.339 254.054 104.149 253.731 102.958 253.44C102.852 253.414 102.753 253.381 102.647 253.354C101.563 253.077 100.485 252.753 99.3939 252.529C96.2924 251.888 93.31 250.845 90.3341 249.794C82.9607 247.199 75.9244 243.883 69.1858 239.927C64.3584 237.087 59.7293 233.95 55.325 230.49C47.8127 224.605 41.0807 217.934 35.0563 210.537C33.0988 208.133 30.9827 205.855 28.9922 203.471C25.851 199.713 22.9611 195.763 20.2763 191.662C17.3798 187.243 14.7875 182.667 12.473 177.924C9.90051 172.648 7.73146 167.212 5.97902 161.611C5.40369 159.782 4.87465 157.933 4.37207 156.077C4.10094 155.099 3.96206 154.089 3.69754 153.111C2.47414 148.64 1.75333 144.07 1.16478 139.48C0.70848 135.927 0.410896 132.354 0.28525 128.767C0.265411 128.219 0.119925 127.678 0.0273438 127.129C0.0273438 124.99 0.0273438 122.85 0.0273438 120.71C0.0868605 120.512 0.192668 120.314 0.205894 120.109C0.305089 118.722 0.377831 117.342 0.470413 115.955C0.496865 115.532 0.549769 115.109 0.582834 114.68C0.648963 113.749 0.688641 112.818 0.77461 111.886C1.09203 108.313 1.60784 104.773 2.25592 101.247C3.17512 96.2733 4.38529 91.3728 5.9195 86.5516C7.84388 80.5019 10.2179 74.6371 13.0483 68.9506C16.5003 62.0093 20.5672 55.4511 25.236 49.2693C29.6138 43.4706 34.4677 38.0945 39.7912 33.1478C45.5907 27.7585 51.8532 22.9769 58.5786 18.7962C65.5288 14.4769 72.8362 10.8907 80.5006 8.01112C86.5184 5.75239 92.6685 3.96258 98.9508 2.65489C102.376 1.94161 105.828 1.31418 109.313 0.964144C112.56 0.640525 115.814 0.409368 119.067 0.13198C119.299 0.112167 119.53 0.0395175 119.768 -0.00671387C125.634 -0.000109391 131.526 -0.000109391 137.418 -0.000109391ZM131.698 9.85377C129.582 9.91982 127.466 9.95284 125.356 10.0585C119.947 10.3227 114.571 10.9303 109.254 11.9474C106.45 12.4824 103.646 13.0569 100.875 13.7306C98.8252 14.2325 96.8148 14.9128 94.7979 15.5402C86.5912 18.1094 78.7482 21.5239 71.2689 25.7507C63.6706 30.0371 56.5815 35.0498 50.0347 40.8288C42.1784 47.7569 35.3142 55.5435 29.4683 64.2218C23.1728 73.5672 18.2329 83.5795 14.6619 94.2656C13.4451 97.9112 12.3804 101.603 11.4876 105.335C10.9586 107.567 10.542 109.826 10.4031 112.131C10.2245 115.116 9.8939 118.101 9.841 121.093C9.77487 124.62 9.86084 128.153 10.0063 131.68C10.1055 134.13 10.3766 136.58 10.6544 139.024C10.8925 141.091 11.2099 143.152 11.5736 145.199C12.0828 148.033 12.6383 150.866 13.2467 153.679C13.5376 155.033 13.9675 156.361 14.351 157.695C15.6141 162.113 17.0756 166.459 18.8016 170.719C21.9097 178.374 25.7386 185.645 30.3412 192.501C36.65 201.879 44.1227 210.234 52.7261 217.571C58.6249 222.604 64.9403 227.042 71.6723 230.892C78.3977 234.743 85.4273 237.92 92.7677 240.423C97.0992 241.902 101.497 243.13 105.967 244.101C109.968 244.967 113.989 245.706 118.062 246.116C120.886 246.4 123.71 246.67 126.534 246.855C129.695 247.06 132.842 246.743 135.99 246.439C139.773 246.076 143.529 245.535 147.265 244.834C153.455 243.672 159.519 242.054 165.451 239.954C177.057 235.846 187.829 230.153 197.696 222.775C206.67 216.072 214.605 208.305 221.502 199.488C227.163 192.25 231.997 184.496 235.846 176.161C237.493 172.595 238.947 168.942 240.409 165.297C241.037 163.718 241.5 162.067 241.95 160.429C242.862 157.134 243.834 153.845 244.575 150.509C246.209 143.159 247.128 135.709 247.392 128.173C247.617 121.8 247.313 115.453 246.645 109.119C246.414 106.893 245.964 104.694 245.587 102.488C244.793 97.898 243.709 93.374 242.38 88.9093C240.673 83.1833 238.544 77.6157 236.011 72.2066C232.745 65.2389 228.863 58.6212 224.353 52.38C223.381 51.0393 222.435 49.659 221.331 48.4305C219.81 46.7464 218.176 45.1481 216.523 43.5894C212.099 39.4088 207.404 35.565 202.411 32.0778C197.749 28.8218 192.901 25.8894 187.836 23.3005C180.707 19.6614 173.294 16.7422 165.583 14.5892C163.057 13.8825 160.518 13.2419 157.965 12.6277C156.675 12.3172 155.346 12.1521 154.037 11.9144C152.8 11.6898 151.577 11.4058 150.334 11.2209C148.965 11.0162 147.576 10.9105 146.201 10.7454C141.386 10.1708 136.552 9.8934 131.698 9.85377ZM41.5965 216.627C41.57 216.653 41.537 216.68 41.5105 216.706C41.6296 216.858 41.742 217.023 41.8809 217.168C44.8633 220.325 48.0177 223.291 51.3176 226.111C56.2112 230.285 61.3825 234.082 66.8845 237.411C69.2652 238.851 71.6723 240.244 74.1323 241.545C81.3603 245.369 88.9189 248.401 96.7818 250.653C98.5739 251.168 100.373 251.67 102.165 252.172C102.449 252.251 102.74 252.278 103.031 252.337C103.527 252.436 104.023 252.542 104.519 252.648C105.041 252.76 105.557 252.865 106.08 252.978C106.344 253.031 106.602 253.083 106.867 253.136C107.938 253.361 108.996 253.625 110.074 253.797C111.416 254.015 112.772 254.167 114.121 254.332C116.217 254.589 118.314 254.88 120.417 255.065C122.711 255.263 125.013 255.355 127.314 255.474C131.196 255.666 135.077 255.567 138.953 255.309C141.115 255.164 143.271 254.959 145.433 254.761C146.683 254.649 147.933 254.517 149.176 254.338C150.096 254.213 151.008 253.982 151.927 253.836C155.915 253.202 159.85 252.317 163.751 251.254C172.302 248.929 180.489 245.7 188.338 241.605C194.164 238.567 199.713 235.08 204.99 231.176C208.045 228.918 210.975 226.494 213.812 223.964C219.34 219.031 224.366 213.628 228.902 207.783C234.371 200.743 239 193.187 242.823 185.13C245.428 179.635 247.604 173.975 249.396 168.163C249.469 167.939 249.508 167.701 249.561 167.476C249.363 167.701 249.25 167.939 249.158 168.183C245.951 176.755 241.831 184.859 236.818 192.514C234.398 196.212 231.786 199.766 228.968 203.173C224.478 208.616 219.558 213.635 214.222 218.245C209.559 222.274 204.613 225.932 199.409 229.235C192.128 233.851 184.457 237.688 176.362 240.674C170.761 242.741 165.061 244.491 159.175 245.587C157.37 245.924 155.578 246.353 153.766 246.664C152.027 246.961 150.274 247.179 148.522 247.41C144.031 248.005 139.515 248.289 134.985 248.341C132.922 248.368 130.858 248.236 128.802 248.302C120.364 248.592 111.998 247.952 103.679 246.565C98.3887 245.68 93.1909 244.418 88.0659 242.84C82.4316 241.103 76.9428 238.983 71.5996 236.48C65.9851 233.851 60.6154 230.807 55.4639 227.372C51.0001 224.4 46.7546 221.151 42.7472 217.584C42.3636 217.254 41.9734 216.944 41.5965 216.627ZM25.8179 197.877C25.8775 197.844 25.937 197.811 25.9965 197.778C25.9105 197.626 25.8246 197.467 25.7386 197.315C24.2044 194.561 22.5842 191.847 21.1426 189.04C16.0175 179.067 12.3473 168.573 10.0791 157.589C9.62938 155.397 9.29873 153.178 8.96808 150.958C8.61098 148.581 8.24727 146.203 8.00259 143.812C7.53307 139.235 7.40742 134.639 7.48678 130.035C7.55952 125.723 7.81081 121.423 8.41259 117.157C9.01438 112.903 9.78809 108.67 10.4825 104.423C10.7536 102.766 10.9917 101.101 11.3157 99.4567C13.3393 89.2528 16.6259 79.4716 21.1161 70.0866C23.2058 65.7144 25.56 61.4876 28.1523 57.3928C31.7696 51.6865 35.8432 46.3237 40.3665 41.2977C43.8978 37.3746 47.6606 33.6893 51.6548 30.2352C56.1979 26.3055 60.9857 22.7193 66.038 19.4699C70.6804 16.4847 75.5078 13.8297 80.5072 11.4983C87.0144 8.46023 93.7398 6.00996 100.683 4.18713C102.476 3.71821 104.274 3.28892 106.073 2.83982C105.934 2.79358 105.795 2.80019 105.67 2.82C97.7142 4.08146 89.9506 6.0628 82.3787 8.80366C69.6752 13.407 58.0826 19.9652 47.5614 28.4256C41.5833 33.2336 36.0879 38.5502 31.0885 44.3754C26.4263 49.8109 22.2535 55.5964 18.59 61.7451C13.0351 71.0773 8.80276 80.9708 5.9195 91.4389C3.88932 98.8161 2.49398 106.312 1.89882 113.947C1.71365 116.292 1.50204 118.636 1.4822 120.987C1.44913 124.62 1.52188 128.259 1.6343 131.891C1.69381 133.866 1.87898 135.841 2.11704 137.802C2.42785 140.371 2.79818 142.934 3.2148 145.49C3.58512 147.755 4.01497 150.007 4.47788 152.259C4.75562 153.613 5.12595 154.954 5.51611 156.288C6.05838 158.157 6.64032 160.013 7.23549 161.862C8.75647 166.565 10.5486 171.168 12.6251 175.659C15.2306 181.293 18.2262 186.722 21.665 191.893C23.0207 193.901 24.4358 195.875 25.8179 197.877ZM14.7743 89.9925C21.9692 70.6744 33.1319 54.0575 48.4872 40.2938C63.8293 26.5433 81.4793 17.0394 101.53 12.1323C121.554 7.23179 141.618 7.29123 161.609 12.2644C181.613 17.2442 199.177 26.8801 214.572 40.5514C214.479 40.3598 214.36 40.2013 214.228 40.056C210.981 36.5953 207.562 33.3261 203.938 30.2682C195.355 23.0231 185.931 17.0923 175.714 12.4295C169.445 9.56978 162.964 7.26482 156.299 5.48821C148.958 3.53329 141.492 2.25862 133.92 1.68403C132.214 1.55194 130.495 1.41325 128.789 1.45948C123.082 1.60478 117.414 2.17937 111.8 3.20306C109.723 3.57952 107.653 3.98239 105.597 4.45791C103.408 4.96646 101.226 5.52123 99.0699 6.14205C91.0153 8.45362 83.2847 11.5841 75.8649 15.4808C67.5127 19.8662 59.7557 25.1431 52.6005 31.2853C48.1632 35.0895 44.0301 39.1975 40.1879 43.6026C33.2575 51.5478 27.4513 60.2459 22.7429 69.6771C19.7076 75.7598 17.1946 82.0539 15.1843 88.5461C15.0256 89.0348 14.9065 89.517 14.7743 89.9925ZM151.173 245.482C151.18 245.528 151.193 245.581 151.2 245.627C151.96 245.515 152.721 245.409 153.475 245.277C155.445 244.934 157.416 244.603 159.38 244.2C160.683 243.936 161.959 243.56 163.242 243.21C164.763 242.8 166.284 242.397 167.798 241.955C172.91 240.462 177.896 238.606 182.764 236.434C191.182 232.682 199.091 228.066 206.484 222.564C213.944 217.01 220.702 210.716 226.74 203.642C230.688 199.013 234.272 194.119 237.486 188.954C243.504 179.292 248.1 168.989 251.281 158.065C251.995 155.608 252.669 153.138 253.258 150.648C253.608 149.142 253.827 147.597 253.966 146.058C254.263 142.888 254.561 139.718 254.693 136.541C254.885 131.971 254.759 127.4 254.402 122.83C254.032 118.134 253.384 113.478 252.557 108.848C252.121 106.411 251.466 104.007 250.851 101.603C248.206 91.3134 244.291 81.5388 239.067 72.2793C236.659 68.0128 233.988 63.9114 231.071 59.9685C230.919 59.7638 230.761 59.5723 230.602 59.3741C230.549 59.4072 230.496 59.4402 230.443 59.4732C230.582 59.711 230.714 59.9553 230.853 60.1931C233.333 64.2879 235.575 68.5081 237.572 72.8605C239.979 78.111 241.996 83.5069 243.643 89.048C245.197 94.2722 246.341 99.5822 247.194 104.958C247.452 106.59 247.597 108.234 247.802 109.872C247.961 111.193 248.206 112.507 248.285 113.828C248.47 117.084 248.662 120.34 248.708 123.603C248.781 128.767 248.483 133.912 247.875 139.044C247.419 142.894 246.81 146.712 245.99 150.496C245.289 153.726 244.555 156.955 243.477 160.092C243.008 161.473 242.677 162.899 242.194 164.273C241.434 166.439 240.647 168.599 239.794 170.726C237.089 177.469 233.783 183.902 229.914 190.05C223.711 199.917 216.291 208.767 207.622 216.567C202.093 221.534 196.175 225.972 189.84 229.869C180.376 235.694 170.292 240.139 159.638 243.282C157.436 243.93 155.194 244.465 152.972 245.046C152.364 245.231 151.762 245.35 151.173 245.482ZM149.123 2.41052C149.123 2.43034 149.117 2.45676 149.117 2.47657C151.445 3.04455 153.786 3.57952 156.107 4.18713C165.345 6.62418 174.187 10.0915 182.631 14.5694C186.176 16.445 189.641 18.4528 192.934 20.7512C194.204 21.6362 195.54 22.4353 196.796 23.3335C201.194 26.4904 205.354 29.9314 209.302 33.6365C213.349 37.4275 217.118 41.4826 220.63 45.7755C222.151 47.638 223.632 49.5401 225.14 51.4157C227.064 53.8132 229.068 56.1578 230.919 58.608C234.748 63.6736 238.088 69.0431 241.064 74.6569C243.372 79.0092 245.395 83.4805 247.2 88.0508C249.482 93.8495 251.234 99.8067 252.616 105.876C253.132 108.142 253.569 110.42 253.939 112.712C254.336 115.136 254.673 117.573 254.931 120.01C255.209 122.665 255.374 125.333 255.546 128.001C255.658 129.732 255.685 131.469 255.751 133.199C255.897 132.188 255.969 131.178 256.022 130.161C256.465 122.308 256.088 114.495 254.991 106.715C253.794 98.2415 251.757 89.9727 248.827 81.9284C246.632 75.8919 244 70.047 240.865 64.4332C235.502 54.8237 228.942 46.1057 221.218 38.253C215.782 32.7185 209.89 27.7255 203.522 23.3005C192.24 15.4742 180.006 9.68205 166.787 5.98355C161.391 4.47112 155.922 3.32194 150.367 2.57564C149.95 2.5162 149.533 2.46336 149.123 2.41052ZM108.665 246.103C108.679 246.056 108.685 246.01 108.698 245.957C108.52 245.911 108.341 245.852 108.156 245.819C102.158 244.617 96.2924 242.952 90.559 240.845C79.3235 236.718 68.9213 231.058 59.3127 223.931C50.7356 217.565 43.091 210.227 36.3921 201.912C28.2912 191.847 21.9427 180.778 17.2938 168.738C15.7398 164.722 14.3444 160.654 13.3326 156.46C12.8896 154.617 12.3142 152.801 11.8976 150.958C10.1254 143.086 9.11357 135.108 8.92841 127.037C8.90195 125.842 8.86889 124.64 8.83582 123.444C8.6705 124.197 8.57792 124.957 8.54485 125.716C8.34647 129.831 8.28034 133.945 8.4655 138.066C8.63744 142.023 9.03421 145.952 9.51035 149.875C9.59632 150.589 9.68229 151.302 9.78809 152.015C9.85422 152.464 9.97326 152.9 10.046 153.349C10.1452 153.957 10.1849 154.571 10.3105 155.172C10.661 156.843 11.0313 158.507 11.4083 160.172C12.4465 164.782 13.7427 169.325 15.3099 173.783C18.6098 183.175 22.9744 192.058 28.483 200.36C29.6931 202.183 30.8967 204.039 32.3053 205.71C35.7043 209.745 39.5002 213.41 43.4812 216.871C48.7782 221.474 54.4389 225.596 60.4501 229.228C69.4437 234.664 78.973 238.89 89.038 241.922C93.3893 243.236 97.8068 244.293 102.277 245.099C104.387 245.468 106.529 245.766 108.665 246.103Z" fill="white"/>
</svg>
